<svg version="1" xmlns="http://www.w3.org/2000/svg" width="23" height="23" viewBox="0 0 23 23"><circle fill="#657176" cx="11.5" cy="11.5" r="11.5"/><title>Page 1</title><g><path fill="#AAB1B2" d="M9 14.4s0-.1.1-.1c.1-.2.3-.5.5-.6 1.1-.9 2.6-1.1 3.9-1.6.2-.1.3-.1.5-.2s.3-.3.3-.5V8.1c-.2 1-1 1.3-1.8 1.7-1.2.5-2.4.8-3.6 1.3-1.1.4-1.8 1-2.4 2.1-.1 0 1.5-.3 2.5 1.2z"/><path fill="#FFF" d="M13.3 17.3c-.4.2-1 .3-1.7.3-1.1 0-1.8-.2-2.2-.6-.4-.4-.6-1-.6-1.8 0-.3.1-.6.2-.9-1-1.4-2.6-1.2-2.6-1.2-.2.5-.3 1-.3 1.6 0 2.2.4 4 2.7 4.8.7.2 1.6.4 2.8.4 1.1 0 2.1-.1 2.8-.4.2-.1.3-.1.5-.2-1.7-.4-1.6-2-1.6-2z"/><path fill="#AAB1B2" d="M17 12c-1.4.9-2.7 0-2.7 0v3.2c0 .8-.2 1.3-.6 1.8-.1.1-.3.2-.4.3 0 0-.1 1.6 1.5 2.1 1.3-.6 2.2-1.8 2.2-3.3V12z"/><path fill="#FFF" d="M14.3 12s1.3.9 2.7 0V6.8c0-1.1-.5-2-1.3-2.7-.2-.2-.4-.3-.7-.4 0 1.6-1.3 2.1-1.5 2.2.1 0 .1.1.2.1.2.2.4.4.4.6.1.2.1.4.1.6v4.2l.1.6z"/><path fill="#AAB1B2" d="M14.9 3.7c-.9-.4-2-.6-3.5-.6-1 0-1.8.1-2.5.3-.6.2-1.2.5-1.6.8-.5.4-.8.8-1 1.2-.2.5-.3 1-.3 1.5v.5c0 .1.1.2.2.2l2.3-.1c.1 0 .2-.1.2-.2 0-.5.2-1 .5-1.4.4-.4 1.1-.6 2.2-.7.5 0 1 0 1.3.2.2.1.4.1.5.2l.1.1c.3.1 1.6-.4 1.6-2z"/></g></svg>