<?xml version="1.0" encoding="utf-8"?>
<!-- Generator: Adobe Illustrator 21.0.2, SVG Export Plug-In . SVG Version: 6.00 Build 0)  -->
<svg version="1.0" id="Layer_1" xmlns="http://www.w3.org/2000/svg" xmlns:xlink="http://www.w3.org/1999/xlink" x="0px" y="0px"
	 viewBox="0 0 24 24" enable-background="new 0 0 24 24" xml:space="preserve">
<g>
	<circle fill="#657176" cx="12" cy="12" r="11.5"/>
	<g>
		<path fill="#D0D8D8" d="M16.671,8.549c0.004-0.181-0.056-0.341-0.182-0.478l-0.86-0.9l-1.388-1.452
			c-0.131-0.131-0.288-0.199-0.47-0.203c-0.182-0.004-0.338,0.056-0.469,0.182c-0.131,0.125-0.199,0.279-0.202,0.461
			c-0.004,0.182,0.058,0.34,0.186,0.474l1.388,1.452l0.86,0.9c0.128,0.134,0.283,0.203,0.465,0.207
			c0.182,0.004,0.339-0.057,0.469-0.182C16.599,8.885,16.667,8.731,16.671,8.549z"/>
		<path fill="#FFFFFF" d="M14.242,5.719c-0.129-0.124-0.284-0.203-0.494-0.203c-0.19,0-0.345,0.083-0.47,0.207
			c-0.125,0.124-0.187,0.281-0.187,0.471v1.644v0.284V9.02v0.745v2.412c-0.641-0.519-1.381-0.778-2.221-0.778
			c-0.978,0-1.814,0.346-2.505,1.037c-0.692,0.692-1.038,1.527-1.038,2.505c0,0.978,0.346,1.814,1.038,2.505
			c0.692,0.692,1.527,1.037,2.505,1.037c0.97,0,1.805-0.346,2.505-1.038c0.692-0.683,1.038-1.518,1.038-2.505V9.766V9.02V8.122
			V7.838V6.194C14.414,6.004,14.371,5.843,14.242,5.719z"/>
	</g>
</g>
</svg>
