<svg width="23" height="25" viewBox="0 0 23 25" xmlns="http://www.w3.org/2000/svg" xmlns:xlink="http://www.w3.org/1999/xlink"><defs><path id="a" d="M0 .042V23h22.958V.042H0z"/><path id="c" d="M14.24 0H.8v23.31h13.44V0z"/></defs><g fill="none" fill-rule="evenodd"><g transform="translate(0 2)"><mask id="b" fill="#fff"><use xlink:href="#a"/></mask><path d="M22.958 11.521c0 6.34-5.14 11.48-11.48 11.48C5.14 23 0 17.86 0 11.52 0 5.181 5.14.042 11.479.042c6.34 0 11.479 5.14 11.479 11.48" fill="#657176" mask="url(#b)"/></g><path d="M14.81 22.058l.001.075c0 .011 0 .022-.002.034v.02c0 .01-.003.017-.004.026a.313.313 0 0 1-.005.03c0 .007-.003.014-.005.021l-.007.03a.267.267 0 0 1-.013.04.363.363 0 0 0-.01.03h-.002a.423.423 0 0 1-.014.03c-.004.012-.01.022-.015.032-.006.01-.01.021-.017.031a.92.92 0 0 1-.18.218 1.14 1.14 0 0 1-.173.128l-.03.018-.042.022-.038.018c-.012.007-.026.012-.038.018-.023.01-.046.02-.07.028l-.01.004c-.01.002-.02.006-.03.01-.027.01-.055.016-.083.024l-.038.01a1.409 1.409 0 0 1-.124.02l-.042.006a.59.59 0 0 1-.07.004l-.057.002a.771.771 0 0 1-.047-.002h-.028a21.55 21.55 0 0 1-.083-.01l-.03-.006-.035-.007-.052-.012-.04-.012a.875.875 0 0 1-.099-.035l-.039-.016-.057-.027a1.828 1.828 0 0 1-.255-.156l-.012-.009-.06-.046-.008-.007a.686.686 0 0 1-.081-.066l-.025-.02-.065-.059-.105-.099-.082-.08-.174-.178-.067-.067v-.002c-.2.197-.596.245-.77.245-.174 0-.569-.048-.768-.245l-.002.002-.066.067-.045.046-.023.023a7.308 7.308 0 0 1-.358.346c-.009.007-.016.015-.025.021a.868.868 0 0 1-.08.066l-.008.006a.643.643 0 0 1-.04.032l-.02.015-.012.01a1.931 1.931 0 0 1-.217.134c-.012.008-.026.014-.038.02a1.036 1.036 0 0 1-.162.068l-.034.011-.04.012a4.221 4.221 0 0 1-.052.012l-.035.007-.029.005-.084.01-.028.001a.708.708 0 0 1-.047.002c-.613 0-1.119-.42-1.119-.854a1.781 1.781 0 0 1 .007-.137v-.009l.001-.008.007-.055.002-.022.008-.047.007-.03.012-.057.017-.063.006-.02.014-.044.006-.015.021-.056.025-.06.017-.037a2.52 2.52 0 0 1 .07-.129l.023-.039c.02-.03.038-.059.057-.085l-.003-.005a1.535 1.535 0 0 1-.297-.908c0-.186.094-.37.25-.52.101-.098.23-.18.376-.239l.055.042.001.001.036.027c.1.074.198.146.296.214.382.27.747.495 1.081.666a4.373 4.373 0 0 0 .452.21c.31.125.581.191.796.191.212 0 .478-.059.778-.173.057-.022.116-.044.176-.07a6.23 6.23 0 0 0 .77-.39 9.94 9.94 0 0 0 1.035-.69c.141.065.263.153.357.255l.017.02a.703.703 0 0 1 .187.523l-.006.093a1.563 1.563 0 0 1-.293.754l.005.006a1.352 1.352 0 0 1 .086.133l.033.058a1.722 1.722 0 0 1 .07.154l.003.007.003.007.006.014.02.06a.613.613 0 0 1 .028.097l.008.033.012.055c.002.012.005.025.006.038l.002.01.006.037v.002l.006.053.005.073" fill="#A0A9AA"/><path d="M9.19 19.987a.395.395 0 0 1-.397.397.397.397 0 0 1-.392-.46h.001a.397.397 0 0 1 .392-.335l.033.002h.001a11.436 11.436 0 0 0 .332.241c.02.049.03.1.03.155M9.428 20.566a.397.397 0 1 0 0 .795.397.397 0 0 0 0-.795M10.222 21.92a.397.397 0 0 0-.159.76l.534-.493a.397.397 0 0 0-.375-.268M8.725 21.758a.397.397 0 1 1 0 .795.397.397 0 0 1 0-.795" fill="#9A9FA0"/><path d="M10.638 20.686l-.062.427-.009.062a.36.36 0 0 1-.093 0 .394.394 0 0 1-.351-.394c0-.111.045-.21.118-.282.095.049.188.095.277.135.041.018.08.036.12.052" fill="#E87575"/><path d="M14.883 21.984c-.039-.232-.07-.412-.178-.412a.397.397 0 1 0 .06.792l.076.002s.081-.151.042-.382" fill="#9A9FA0"/><path d="M13.482 20.642a.397.397 0 1 1-.78-.103 7.6 7.6 0 0 0 .51-.272.393.393 0 0 1 .27.375" fill="#E87575"/><path d="M12.39 21.177l-.083.789a.397.397 0 0 0 .083-.789M13.57 21.693a.397.397 0 1 1-.001.794.397.397 0 0 1 0-.794M14.6 21.083l.169-.116.04-.592a.396.396 0 1 0-.245.709l.036-.001" fill="#9A9FA0"/><path d="M8.4 19.38a1.374 1.374 0 0 0-.41.396c.08.071.162.143.246.213a.936.936 0 0 1 .16-.2c.078-.076.17-.142.276-.195a12.178 12.178 0 0 1-.271-.214m6.21.037c-.061.05-.125.1-.19.15l.014.004c.128.056.17.191.183.251l.005.03a.772.772 0 0 1 .162.283c.089-.073.176-.147.26-.22a1.281 1.281 0 0 0-.433-.498" fill="#00AEC5"/><path d="M8.672 19.594a1.137 1.137 0 0 0-.276.194.917.917 0 0 0-.16.202l.076.064c.04.033.08.067.122.1a.392.392 0 0 1-.032-.229v-.001a.402.402 0 0 1 .284-.32l-.014-.01m5.95.258a.429.429 0 0 1-.06.08.395.395 0 0 1-.261.125h-.026a.394.394 0 0 1-.314-.154c-.213.148-.43.288-.646.416a.393.393 0 0 1 .168.323.398.398 0 0 1-.794.011c-.451.212-.87.344-1.2.344-.246 0-.542-.079-.865-.213l-.047.329-.01.062c-.015.002-.03.002-.046.002s-.031 0-.047-.002a.398.398 0 0 1-.293-.599 9.127 9.127 0 0 1-.87-.522l-.112-.016-.011-.002a.396.396 0 0 1-.475.339c.14.108.282.214.427.316a.397.397 0 0 1 .653.43 7.733 7.733 0 0 0 .65.355l.04.018c.065.032.13.06.194.088.296.123.568.2.802.215.027.002.053.003.08.003.208 0 .45-.052.715-.144l.068-.024.049-.455a.397.397 0 0 1 .34.292 9.333 9.333 0 0 0 1.38-.82c.023-.015.044-.031.066-.047a.398.398 0 0 1 .388-.312l.027.001c.038-.029.074-.059.11-.088l.083-.067a.768.768 0 0 0-.162-.284" fill="#9A9FA0"/><path d="M8.686 19.604a.4.4 0 0 0-.284.32.394.394 0 0 0 .032.23c.09.074.183.147.278.221a.387.387 0 0 0 .353-.1.387.387 0 0 0 .122-.239.097.097 0 0 1-.07-.109l.002-.006a11.449 11.449 0 0 1-.433-.317M9.428 20.566a.396.396 0 0 0-.289.125c.216.153.435.298.653.43a.395.395 0 0 0-.364-.555M10.18 20.576a.397.397 0 0 0 .294.599.367.367 0 0 0 .046.003c.016 0 .032-.002.047-.003l.009-.062.048-.33a5.444 5.444 0 0 1-.444-.207M13.314 20.319a7.53 7.53 0 0 1-.626.334c.003.117.056.22.14.29.068.06.158.097.257.097a.398.398 0 0 0 .23-.721M12.39 21.177l-.048.455c.042-.016.085-.032.127-.05a5.18 5.18 0 0 0 .262-.113.398.398 0 0 0-.341-.292M14.564 20.29a.397.397 0 0 0-.388.312h.001l.057-.04.014-.01c.117-.086.231-.173.343-.26h.001c-.009-.002-.019-.002-.028-.002" fill="#939697"/><path d="M16.598 11.005c1.872 0 1.139 3.077-.17 3.077l.17-3.077zM6.254 11.005c-1.872 0-1.14 3.077.17 3.077l-.17-3.077z" fill="#FFF"/><path d="M17.314 3.157c-.383.047-.777.018-1.015-.22-.58-.581-1.866-2.614-4.092-2.614-2.227 0-3.656.925-4.517 2.243-.581.888-1.816 1.464-1.816 2.394 0 1.032.426 3.773.36 5.34 0 3.592.59 7.001.59 7.324 0 .635 3.214 3.373 4.665 3.373 1.45 0 4.634-2.545 4.634-3.373 0-.323.589-3.784.589-7.378-.046-1.131.17-3.403.29-4.953l.105-.14c.303-.387.5-.767.746-1.218a.531.531 0 0 0-.54-.778" fill="#A6B0B1"/><path d="M16.318 9.409c0 .927-.113 4.105-.249 5.645-.049.003-9.117.001-9.189-.009-.133-1.465-.245-4.71-.245-5.629 0-.846.228-2.425.32-3.016a.257.257 0 0 1 .268-.219l.445.026h.012l.28.017.851.048.27.016.071.004h.016c.984.055 1.998.108 2.31.107.106 0 .297-.006.541-.017 1.035-.043 3.032-.162 3.711-.202a.254.254 0 0 1 .27.216c.018.12.042.282.068.47.105.733.25 1.87.25 2.543" fill="#FFF"/><path d="M15.727 6.308h-.017c-.678.042-2.675.16-3.71.204-.245.01-.436.016-.543.016h-.005c-.318 0-1.326-.052-2.304-.106l-.015-.001-.072-.004c1.155 1.073 2.428 1.818 3.834 1.818.985 0 2.035-.366 3.154-1.24a74.505 74.505 0 0 0-.069-.47.256.256 0 0 0-.253-.217" fill="#E7F1F5"/><path d="M8.378 5.6c2.246 2.245 4.955 3.357 8.231.08L8.38 5.6z" fill="#A6B0B1"/><path d="M11.112 20.178c-.98 0-1.842-.129-1.913-.14a.097.097 0 0 1 .029-.192c.034.006 3.408.514 4.389-.468.662-.662.05-2.372.045-2.389a.097.097 0 1 1 .182-.066c.027.076.659 1.844-.09 2.593-.53.529-1.646.663-2.642.663" fill="#A0A9AA"/><path d="M10.073 19.228c-1.027 0-2.005-.131-2.08-.142a.096.096 0 0 1-.083-.108.096.096 0 0 1 .11-.083c.008 0 .87.118 1.82.137 1.233.024 2.047-.126 2.355-.433.728-.73-.226-1.956-.236-1.968a.097.097 0 0 1 .152-.12c.044.055 1.071 1.374.221 2.224-.388.389-1.343.493-2.259.493" fill="#A0A9AA"/><path d="M9.78 18.204c-.312 0-.687-.021-1.126-.063-.886-.085-1.712-.23-1.721-.23a.097.097 0 0 1-.078-.113.096.096 0 0 1 .112-.078c.9.158 3.336.488 3.785.128a.188.188 0 0 0 .074-.15c.005-.282-.433-.726-.603-.873a.098.098 0 0 1-.01-.137.097.097 0 0 1 .138-.01c.069.06.677.602.668 1.025a.373.373 0 0 1-.146.295c-.17.138-.531.206-1.093.206M15.74 18.44a.097.097 0 0 1-.092-.062 79.206 79.206 0 0 0-.598-1.527.097.097 0 0 1 .18-.073c.273.675.528 1.342.6 1.53a.097.097 0 0 1-.09.132M17.168 4.364c-.434 0-1.016-.141-1.688-.42-1.83-.757-3.681-2.244-3.681-3.621 0-.053.044-.098.097-.098.054 0 .097.045.097.098 0 1.278 1.835 2.727 3.56 3.442 1.032.429 1.875.528 2.147.256a.097.097 0 0 1 .137.136c-.14.14-.368.207-.67.207M16.38 5.527c-.3 0-.647-.042-.964-.103-2.076-.395-4.908-1.795-6.057-4.441a.098.098 0 0 1 .05-.128.098.098 0 0 1 .128.05c1.118 2.578 3.886 3.943 5.916 4.329.81.154 1.359.112 1.48-.01a.097.097 0 0 1 .137 0 .097.097 0 0 1 0 .138c-.12.119-.378.165-.69.165" fill="#A0A9AA"/><path d="M14.287 6.44c-.451 0-.93-.041-1.414-.13-1.145-.21-3.944-.998-5.208-3.8a.097.097 0 0 1 .177-.08c1.226 2.719 3.95 3.486 5.066 3.69 1.587.29 3.108.08 3.697-.508a.098.098 0 0 1 .137 0c.038.038.038.1 0 .137-.446.446-1.37.692-2.455.692" fill="#A0A9AA"/><path d="M6.655 16.240000000000002c.026.213.05.405.073.575v.001l-.073-.576" fill="#00BDD6"/><path d="M16.453 14.675a.078.078 0 0 0-.075.052c-.05.134-.128.3-.244.456a1.23 1.23 0 0 1-1.029.526c-.354 0-.846-.441-1.517-.654h-1.331a2.16 2.16 0 0 0-.162.064l-1.284-.023c-.034-.015-.07-.028-.108-.042l-1.321-.001c-.676.21-1.171.656-1.526.656a1.38 1.38 0 0 1-.186-.013c-.463-.062-.75-.35-.923-.634a1.896 1.896 0 0 1-.165-.335.078.078 0 0 0-.106-.045 70.613 70.613 0 0 0 .253 2.134c.074.119.16.229.261.326.366.35.934.594 1.797.594.87 0 1.491-.172 1.916-.366a2.9 2.9 0 0 0-.48-.545.097.097 0 0 1 .127-.147c.048.042.345.307.527.606.311-.167.489-.333.558-.41a.052.052 0 0 1 .04-.016c.014 0 .027.005.037.017.092.097.362.345.87.55a2.897 2.897 0 0 0-.423-.794.098.098 0 0 1 .016-.136.096.096 0 0 1 .136.016c.025.03.366.47.502.998.33.108.74.193 1.242.219-.078-.413-.191-.731-.194-.738a.096.096 0 0 1 .059-.124.096.096 0 0 1 .123.058c.011.032.133.373.212.81.039.002.079.002.119.002.46 0 .837-.08 1.144-.214l-.268-.671a.097.097 0 0 1 .09-.133c.038 0 .074.023.09.06l.261.658a1.826 1.826 0 0 0 .742-.74c.066-.514.154-1.21.235-2.02l-.015-.001" fill="#A0A9AA"/><path d="M12.894 14.944c-.236 0-.451.045-.638.11h1.332a2.299 2.299 0 0 0-.694-.11m-2.826 0c-.247 0-.475.043-.686.109h1.32c-.185-.064-.4-.11-.634-.11" fill="#E8E9E4"/><path d="M13.753 16.86a.097.097 0 0 0-.091.13c.002.007.116.325.193.738.065.003.13.006.2.007a5.363 5.363 0 0 0-.211-.812.096.096 0 0 0-.091-.063M12.035 16.473a.097.097 0 0 0-.076.157c.005.007.278.358.422.794.072.03.15.058.232.085a3.009 3.009 0 0 0-.502-.999.097.097 0 0 0-.076-.037M10.287 16.655a.096.096 0 0 0-.073.033.098.098 0 0 0 .009.137 2.9 2.9 0 0 1 .48.545c.063-.028.12-.057.175-.086a2.926 2.926 0 0 0-.528-.605.096.096 0 0 0-.063-.024M15.14 16.718a.097.097 0 0 0-.09.133c.093.23.185.46.267.67.061-.027.119-.055.175-.085a60.027 60.027 0 0 0-.263-.657.096.096 0 0 0-.089-.061" fill="#9A9FA0"/><path d="M15.912 16.356c-.368.355-.921.605-1.733.605-1.73 0-2.492-.682-2.662-.861a.052.052 0 0 0-.076 0c-.168.18-.92.86-2.648.86-.863 0-1.431-.243-1.798-.593-.692-.661-.668-1.906-.561-2.403.017-.078.125-.087.154-.012.037.1.09.217.163.335.174.284.462.573.925.634.059.009.12.013.185.013.466 0 1.172-.765 2.212-.765.283 0 .534.065.744.152l1.284.023a1.96 1.96 0 0 1 .798-.175c1.039 0 1.746.765 2.212.765a1.23 1.23 0 0 0 1.029-.526c.116-.156.193-.322.244-.456.028-.075.136-.067.153.01.107.494.06 1.73-.625 2.394" fill="#A0A9AA"/><path d="M11.983 13.53c.091.353.168.674.168.753 0 .194-.338.484-.726.484-.387 0-.726-.29-.726-.484 0-.128.204-.9.342-1.408" fill="#FFF"/><g transform="translate(4)"><mask id="d" fill="#fff"><use xlink:href="#c"/></mask><path d="M12.925 5.239l-.018.022-.002.029a3.365 3.365 0 0 1-.377.412l-.225.213-.232.204-.145.12a8.102 8.102 0 0 1-.846.613 5.455 5.455 0 0 1-1.1.536 4.223 4.223 0 0 1-1.19.234 4.23 4.23 0 0 1-.606-.016 4.302 4.302 0 0 1-.597-.111 4.922 4.922 0 0 1-1.132-.455 7.375 7.375 0 0 1-1.023-.684c-.326-.252-.615-.545-.966-.78a.035.035 0 0 0-.037 0 .035.035 0 0 0-.01.048c.142.21.316.39.502.557l-.104-.005c-.662-.038-1.27-.075-1.587-.094a.35.35 0 0 0-.371.3c-.096.628-.32 2.181-.32 3.026 0 .77.073 2.997.17 4.584a1.147 1.147 0 0 1-.03-.075.175.175 0 0 0-.18-.112h-.005a41.378 41.378 0 0 1-.161-3.502c.039-.937-.095-2.269-.212-3.444-.08-.795-.15-1.484-.15-1.9 0-.533.458-.958.943-1.407.31-.288.63-.585.858-.933.952-1.46 2.445-2.2 4.435-2.2 1.813 0 2.977 1.37 3.673 2.19.136.16.253.297.352.397.225.226.593.31 1.094.248a.436.436 0 0 1 .442.636c-.306.562-.59 1.015-.843 1.349zm-.273 8.811a4.181 4.181 0 0 0-.018-.095c.09-1.033.146-2.015.167-2.937 1.513.205.965 2.725-.15 3.032zm-.2-.247a.177.177 0 0 0-.158.114 3.282 3.282 0 0 1-.055.133c.099-1.62.177-3.878.177-4.64 0-.845-.224-2.399-.321-3.027a.257.257 0 0 0-.008-.04l.103-.087.234-.212.224-.218c.075-.072.15-.15.219-.231l.016-.018-.046.553c-.115 1.417-.26 3.179-.221 4.119 0 1.086-.055 2.281-.163 3.554zm-4.41.238l.02.125c.005.032.01.07.012.096a.096.096 0 0 0-.021.083l-.007.018a.467.467 0 0 1-.068.082.817.817 0 0 1-.4.21.749.749 0 0 1-.444-.046.828.828 0 0 1-.194-.117.452.452 0 0 1-.133-.16c-.004-.008-.005-.014-.007-.02l-.004-.018v-.004a.105.105 0 0 0 0-.024v-.011c.005-.038.013-.079.02-.12.016-.082.034-.165.053-.248l.225-.998a.055.055 0 0 0-.036-.064.055.055 0 0 0-.07.036c-.104.325-.203.652-.291.984a10.294 10.294 0 0 0-.073.307 1.962 1.962 0 0 0-.552-.08c-.647 0-1.161.28-1.575.507-.254.137-.473.257-.635.257a1.12 1.12 0 0 1-.935-.466 103.248 103.248 0 0 1-.194-4.962c0-.832.222-2.373.317-2.997a.158.158 0 0 1 .168-.135c.318.02.926.056 1.589.093l.356.02.148.12c.328.262.677.502 1.047.707.369.207.764.37 1.175.48.206.057.417.091.628.12.212.019.427.03.64.016.426-.02.848-.11 1.248-.25a5.614 5.614 0 0 0 1.136-.563c.256-.163.497-.343.73-.532.102.665.307 2.123.307 2.922 0 .82-.09 3.37-.2 4.991a1.123 1.123 0 0 1-.911.436c-.162 0-.382-.12-.636-.258-.413-.226-.928-.506-1.575-.506-.23 0-.458.04-.683.123l-.013-.056-.033-.127a8.23 8.23 0 0 0-.155-.492.033.033 0 0 0-.038-.021.033.033 0 0 0-.027.038l.09.504zm4.442.484l-.015.152-.04.378c-.08.447-.255.912-.584 1.23-.397.384-.958.578-1.666.578-1.67 0-2.406-.636-2.591-.83a.148.148 0 0 0-.108-.047h-.001a.15.15 0 0 0-.108.047c-.183.195-.908.83-2.578.83-.755 0-1.337-.19-1.731-.566a1.67 1.67 0 0 1-.375-.558l-.004-.009a2.443 2.443 0 0 1-.145-.473l-.061-.575-.001-.008a3.35 3.35 0 0 1 .042-.634c.042.104.093.203.15.298.239.39.583.625.995.68.06.007.128.012.199.012.21 0 .45-.13.728-.282.394-.215.885-.483 1.482-.483.183 0 .365.03.542.086l.003.012c.004.014.008.03.014.042a.633.633 0 0 0 .185.237.988.988 0 0 0 .243.146.896.896 0 0 0 .56.053.938.938 0 0 0 .484-.278.636.636 0 0 0 .086-.123.244.244 0 0 0 .014-.034c.23-.094.464-.142.697-.142.597 0 1.088.269 1.482.484.278.152.517.283.729.283.043 0 .087-.003.135-.007.377-.033.69-.206.935-.513l.005-.006.032-.04c.092-.123.17-.268.236-.425.022.132.034.299.03.486zm-.346 2.158l-.027.209c-.053.405-.084.649-.084.732 0 .324-.618 1.034-1.501 1.738-.068.055-.14.109-.21.164l-.024.018a1.194 1.194 0 0 1-.043.032l-.09.066a9.94 9.94 0 0 1-.947.625 6.23 6.23 0 0 1-.769.39l-.175.07c-.301.113-.566.174-.78.174-.213 0-.484-.067-.794-.192l-.056-.023a4.673 4.673 0 0 1-.397-.187 9.29 9.29 0 0 1-1.081-.666c-.097-.068-.196-.14-.296-.215l-.035-.026h-.001l-.001-.002-.054-.04a8.717 8.717 0 0 1-.1-.079c-.062-.047-.123-.096-.183-.143-.973-.782-1.567-1.482-1.567-1.704 0-.082-.032-.323-.085-.723l-.026-.195-.06-.47a1.7 1.7 0 0 0 .176.2c.432.412 1.059.622 1.865.622 1.663 0 2.446-.619 2.687-.858.243.239 1.035.858 2.699.858.76 0 1.366-.213 1.8-.633.085-.082.159-.172.226-.267l-.067.524zm-1.328 5.485l-.001.02-.003.026-.006.03a.065.065 0 0 1-.004.02.147.147 0 0 1-.008.03c-.003.014-.008.026-.012.04l-.012.03-.014.031-.015.032a.853.853 0 0 0-.018.03.896.896 0 0 1-.179.218c-.052.046-.11.09-.173.127l-.031.02-.041.02c-.013.008-.026.014-.038.02a1.376 1.376 0 0 0-.038.018l-.07.027-.011.003-.03.012-.082.023-.038.008-.063.015-.03.003c-.01.003-.021.003-.031.005l-.042.006a1.085 1.085 0 0 1-.174.004c-.01 0-.02 0-.028-.002l-.084-.01a.457.457 0 0 1-.116-.025l-.04-.01a.338.338 0 0 1-.034-.012c-.022-.006-.044-.015-.066-.023-.013-.006-.025-.012-.04-.017a.734.734 0 0 1-.056-.027l-.04-.02a1.409 1.409 0 0 1-.215-.137l-.012-.008-.06-.046-.008-.007c-.007-.005-.015-.01-.022-.017-.02-.015-.04-.032-.06-.049l-.024-.021c-.022-.018-.043-.038-.065-.058a4.815 4.815 0 0 1-.104-.099l-.083-.081c-.061-.06-.118-.12-.173-.177l.002-.003a.43.43 0 0 0 .086-.174c.03-.102.052-.235.065-.38.01-.121.017-.252.016-.383v-.002l-.002-.105c.115-.044.23-.095.344-.148.225-.108.446-.229.652-.35.323-.191.61-.386.82-.538a9.1 9.1 0 0 0 .228-.165.662.662 0 0 1 .175.312c.008.035.012.07.012.104v.012a1.441 1.441 0 0 1-.225.756c-.124.2-.253.31-.256.311a.096.096 0 0 0 .06.171.094.094 0 0 0 .062-.021 1.41 1.41 0 0 0 .214-.232l.033.055a.794.794 0 0 1 .032.059l.03.06.03.067c.004.009.008.017.01.026l.004.006.003.009.006.014.02.058.018.06a1.122 1.122 0 0 0 .018.07.891.891 0 0 1 .018.095l.002.01.006.036v.002l.005.053a.87.87 0 0 1 .005.073c.002.024.002.05.002.075l-.001.035zm-2.536-.512c-.02.17-.05.303-.094.346-.16.16-.506.218-.701.218-.194 0-.541-.058-.701-.218-.05-.05-.083-.215-.101-.42a4.564 4.564 0 0 1-.012-.216V21.348a4.52 4.52 0 0 1-.002-.203c.29.108.574.175.826.175.25 0 .525-.06.806-.157.002.171-.005.346-.021.492zm-1.677.53l-.004.005-.002.003-.008.007-.008.008a7.308 7.308 0 0 1-.358.346l-.025.021c-.02.017-.038.034-.06.049l-.02.017-.008.006a.401.401 0 0 1-.041.032.28.28 0 0 1-.02.015l-.012.008a1.424 1.424 0 0 1-.216.136.753.753 0 0 1-.096.047l-.04.017a.875.875 0 0 1-.065.024l-.033.012-.04.012-.052.011a.457.457 0 0 1-.064.012c-.028.005-.056.008-.084.01l-.028.001-.048.003c-.612 0-1.118-.421-1.118-.854 0-.026 0-.052.002-.076 0-.021.003-.041.004-.063v-.015l.008-.056c0-.008.002-.014.003-.021a1.13 1.13 0 0 0 .014-.078l.013-.056c.005-.021.01-.042.017-.063l.006-.02.014-.046.006-.014.02-.055.026-.06a2.237 2.237 0 0 1 .086-.167l.024-.039c.109.145.204.226.213.233.018.014.04.021.062.021a.093.093 0 0 0 .074-.036.096.096 0 0 0-.014-.136c-.004-.003-.481-.4-.481-1.08a.54.54 0 0 1 .068-.252.842.842 0 0 1 .162-.206 12.793 12.793 0 0 0 1.065.733l.002.002.17.1c.144.084.29.165.439.238.108.055.218.104.326.15l-.002.102v.002l-.001.096a.661.661 0 0 0-.247.096c-.15.094-.24.218-.246.226a.096.096 0 0 0 .024.133.096.096 0 0 0 .135-.023.682.682 0 0 1 .306-.227.19.19 0 0 1 .036-.01c0 .009 0 .018.002.027.02.3.072.558.158.645l.002.002-.046.046zm-4.281-8.111C1.1 13.915.46 11.12 2.148 11.009c.019.951.077 1.97.172 3.04l-.004.026zm11-8.66c.25-.341.526-.785.819-1.324a.853.853 0 0 0-.861-1.254c-.088.01-.172.017-.25.017-.16 0-.376-.026-.495-.145-.087-.087-.2-.22-.33-.373C11.505 1.52 10.214 0 8.207 0 7.096 0 6.113.224 5.284.664A5.067 5.067 0 0 0 3.42 2.39c-.2.304-.5.585-.791.854-.53.492-1.077.999-1.077 1.717 0 .434.07 1.133.15 1.942.117 1.16.249 2.477.21 3.384v.014c0 .134.002.271.004.414-.688.138-1.116.704-1.116 1.518 0 .49.154 1.009.423 1.42.245.378.557.622.898.713l.034.348c.087.846.176 1.55.253 2.144l.014.104c.04.31.08.603.08.663 0 .169.07.436.612 1.016.278.296.637.627 1.03.947a1.241 1.241 0 0 0-.153.19.969.969 0 0 0-.167.53c0 .322.083.634.24.914a1.852 1.852 0 0 0-.24.913c0 .625.674 1.175 1.442 1.175.645 0 1.129-.457 1.49-.824.315.149.672.154.723.154.05 0 .409-.005.723-.154.362.367.845.825 1.49.825.769 0 1.442-.55 1.442-1.176a1.86 1.86 0 0 0-.24-.915c.127-.227.24-.535.24-.912a.925.925 0 0 0-.09-.392 1.202 1.202 0 0 0-.186-.282c.596-.485 1.588-1.384 1.588-2.01 0-.06.04-.358.08-.672l.028-.215c.068-.52.156-1.222.236-2.027l.037-.375c.759-.274 1.246-1.293 1.223-2.162-.02-.747-.401-1.273-1.018-1.436a27.2 27.2 0 0 0 .004-.488v-.006l-.001-.007c-.038-.918.106-2.666.22-4.071.022-.261.043-.512.06-.748z" fill="#3C3C3C" mask="url(#d)"/></g><path d="M10.703 12.255c-.366.602-.906.86-1.804.86-1.26 0-1.535-.777-1.626-1.038-.072-.293-.13-.98.15-1.26.436-.434 2.437-.375 3.153-.146.095.03.169.112.218.244.159.426.018 1.16-.091 1.34m1.418-1.34c.049-.13.123-.214.219-.244.716-.229 2.716-.288 3.152.146.279.28.222.967.15 1.26-.091.262-.368 1.038-1.626 1.038-.898 0-1.438-.258-1.804-.86-.11-.18-.25-.914-.091-1.34m1.895 2.393c.944 0 1.537-.383 1.81-1.172l.003-.008c.069-.277.168-1.079-.2-1.448-.534-.532-2.675-.409-3.348-.194-.155.05-.27.171-.341.362a1.553 1.553 0 0 0-.083.517l-.288-.128a.332.332 0 0 0-.264-.002l-.248.104a1.512 1.512 0 0 0-.082-.49c-.07-.192-.186-.314-.34-.363-.674-.215-2.816-.338-3.348.194-.37.37-.27 1.171-.201 1.448l.003.008c.274.79.866 1.172 1.81 1.172.975 0 1.564-.285 1.97-.952.082-.136.165-.462.185-.804l.326-.139a.14.14 0 0 1 .11.001l.352.156a.058.058 0 0 0 .02.007c.024.333.105.646.184.78.406.666.995.951 1.97.951" fill="#3C3C3C"/></g></svg>