<svg width="24" height="25" viewBox="0 0 24 25" xmlns="http://www.w3.org/2000/svg" xmlns:xlink="http://www.w3.org/1999/xlink"><title>Logo-hipsters-pontotech</title><defs><path d="M.52.72l.075.005H.61c1.022.057 2.073.112 2.405.112h.006c.112 0 .312-.007.567-.018C4.669.774 6.755.65 7.464.608l.017-.001c.131 0 .244.095.264.226.019.127.044.295.071.491-1.168.913-2.264 1.294-3.293 1.294-1.468 0-2.797-.776-4.003-1.897z" id="a"/><path id="c" d="M17.898 0H.078v22.265h17.82V0z"/></defs><g fill="none" fill-rule="evenodd"><path d="M23.976 13.012C23.976 19.633 18.609 25 11.988 25 5.367 25 0 19.633 0 13.012 0 6.391 5.367 1.024 11.988 1.024c6.621 0 11.988 5.367 11.988 11.988" fill="#657176"/><path d="M17.753 3.45a.134.134 0 0 1-.088-.033 8.745 8.745 0 0 0-1.239-.901.135.135 0 0 1 .065-.253h.038l.032.018c.451.272.882.584 1.281.932a.136.136 0 0 1 .013.192.137.137 0 0 1-.102.046" fill="#3C3C3C"/><path d="M20.156 11.056a2.504 2.504 0 0 1-1.95 2.449l-.084.012-.042.003v.063c0 .114-.03.223-.145.223h-.548c.072-.974.122-2.032.122-3.103-.023-.576.018-1.44.081-2.357h.345c.114 0 .145.075.145.189v.057l.042.003.07.012a2.518 2.518 0 0 1 1.964 2.449M6.686 13.806H6.04c-.114 0-.144-.11-.144-.223v-.064l-.042-.003-.085-.01a2.51 2.51 0 0 1 .014-4.9l.07-.012.043-.003v-.056c0-.114.03-.189.144-.189h.4l.021.026c.077.863.133 1.724.106 2.384 0 1.054.05 2.094.12 3.05" fill="#A6B0B1"/><path d="M18.138 3.316c-.4.05-.812.018-1.06-.23-.607-.607-1.95-2.73-4.274-2.73-2.325 0-3.818.966-4.717 2.342-.606.928-1.897 1.53-1.897 2.5 0 1.08.446 3.941.378 5.577 0 3.752.616 7.312.616 7.65 0 .662 3.355 3.521 4.87 3.521 1.516 0 4.84-2.657 4.84-3.522 0-.337.616-3.952.616-7.704-.05-1.18.176-3.555.3-5.174l.11-.146c.318-.404.524-.8.78-1.272a.553.553 0 0 0-.562-.812" fill="#A6B0B1"/><path d="M17.078 9.845c0 .968-.12 4.287-.26 5.896-.052.002-9.521 0-9.596-.01-.14-1.53-.256-4.918-.256-5.879 0-.883.238-2.533.333-3.15a.27.27 0 0 1 .28-.229c.12.008.279.018.465.027l.013.002c.092.005.189.01.292.017.269.014.573.032.889.05l.282.016c.025.003.05.003.075.005h.015c1.029.058 2.087.112 2.412.112.112 0 .31-.006.566-.018 1.082-.046 3.167-.17 3.876-.212.139-.009.26.09.28.227.02.125.045.293.073.49.11.766.26 1.954.26 2.656" fill="#FFF"/><path d="M16.48 6.607h-.017c-.709.043-2.794.167-3.876.212-.254.012-.454.018-.566.018h-.006c-.332 0-1.384-.054-2.406-.111l-.015-.001-.075-.004c1.206 1.12 2.536 1.898 4.004 1.898 1.028 0 2.125-.382 3.293-1.295a24.867 24.867 0 0 0-.072-.49.267.267 0 0 0-.264-.227" fill="#E7F1F5"/><g transform="translate(9 6)"><mask id="b" fill="#fff"><use xlink:href="#a"/></mask><path fill="#E7F1F5" mask="url(#b)" d="M.52 2.619h7.297V.607H.52z"/></g><g><path d="M8.806 5.849c2.345 2.345 5.174 3.505 8.596.084l-8.596-.084z" fill="#A6B0B1"/><path d="M11.666 21.09h-.056c-1.028-.004-1.938-.143-1.947-.144a.1.1 0 0 1-.086-.115.102.102 0 0 1 .116-.085c.036.006 3.56.535 4.583-.488.692-.692.054-2.478.048-2.496a.1.1 0 0 1 .06-.13.1.1 0 0 1 .13.06c.028.079.688 1.926-.094 2.709-.46.458-1.384.69-2.753.69" fill="#A0A9AA"/><path d="M10.575 20.1c-1.072 0-2.093-.137-2.172-.148a.101.101 0 1 1 .027-.201c.01 0 .911.124 1.9.143 1.29.025 2.14-.131 2.461-.452.761-.76-.236-2.042-.246-2.055a.102.102 0 0 1 .017-.142.1.1 0 0 1 .142.017c.046.058 1.12 1.436.23 2.323-.405.406-1.402.515-2.359.515" fill="#A0A9AA"/><path d="M10.269 19.03c-.326 0-.717-.022-1.176-.066a25.572 25.572 0 0 1-1.797-.24.1.1 0 0 1-.082-.118.102.102 0 0 1 .117-.082c.941.165 3.485.511 3.953.134a.192.192 0 0 0 .077-.155c.006-.295-.452-.76-.629-.913a.101.101 0 0 1 .133-.153c.072.063.707.628.698 1.07a.394.394 0 0 1-.152.31c-.178.142-.555.213-1.142.213M16.489 19.264a.102.102 0 0 1-.095-.066 88.074 88.074 0 0 0-.62-1.58.102.102 0 0 1 .055-.133.102.102 0 0 1 .132.056c.295.726.57 1.448.622 1.585a.102.102 0 0 1-.058.131.113.113 0 0 1-.036.006M17.985 4.577c-.453 0-1.061-.148-1.763-.439-1.91-.79-3.844-2.345-3.844-3.783a.101.101 0 1 1 .203 0c0 1.335 1.916 2.85 3.718 3.596 1.078.446 1.957.551 2.242.267a.102.102 0 0 1 .143 0 .102.102 0 0 1 0 .143c-.145.145-.385.216-.7.216M17.162 5.79c-.312 0-.675-.043-1.006-.106-2.168-.413-5.126-1.875-6.326-4.64a.101.101 0 1 1 .186-.081c1.168 2.693 4.058 4.119 6.178 4.522.847.16 1.419.117 1.546-.01a.1.1 0 0 1 .143 0 .1.1 0 0 1 0 .144c-.124.124-.395.172-.721.172" fill="#A0A9AA"/><path d="M14.976 6.745c-.472 0-.972-.044-1.477-.137C12.305 6.39 9.38 5.565 8.06 2.64a.102.102 0 0 1 .052-.134.1.1 0 0 1 .134.051c1.28 2.837 4.127 3.64 5.29 3.852 1.659.303 3.247.086 3.86-.53a.103.103 0 0 1 .144 0 .1.1 0 0 1 0 .143c-.465.466-1.43.723-2.563.723" fill="#A0A9AA"/><path d="M17.254 15.345a74.385 74.385 0 0 1-.245 2.11c.388-.704.402-1.629.311-2.046a.078.078 0 0 0-.066-.064m-10.435.006a.082.082 0 0 0-.049.06c-.096.443-.129 1.454.313 2.169a74.144 74.144 0 0 1-.264-2.229" fill="#EFBD77"/><path d="M17.24 15.344a.083.083 0 0 0-.08.055 1.946 1.946 0 0 1-.254.476 1.287 1.287 0 0 1-1.074.549c-.37 0-.884-.46-1.585-.683h-1.391a2.002 2.002 0 0 0-.167.067l-1.342-.024a3.011 3.011 0 0 0-.114-.044l-1.38-.001c-.705.221-1.222.685-1.592.685-.068 0-.132-.005-.194-.013-.484-.065-.784-.366-.966-.662a2.052 2.052 0 0 1-.17-.35.082.082 0 0 0-.111-.048c.092.912.19 1.684.263 2.229.076.124.166.239.273.34.383.366.976.621 1.878.621.906 0 1.555-.18 2-.382a3 3 0 0 0-.502-.569.102.102 0 0 1-.01-.143.103.103 0 0 1 .077-.035c.024 0 .047.008.066.025.05.043.36.32.55.632a2.24 2.24 0 0 0 .584-.428.058.058 0 0 1 .04-.017c.014 0 .029.006.039.017.098.102.379.361.908.575a3.048 3.048 0 0 0-.441-.829.102.102 0 0 1 .159-.126c.026.033.383.491.524 1.043.344.113.773.202 1.297.228a5.389 5.389 0 0 0-.202-.77.102.102 0 0 1 .095-.136c.042 0 .08.026.095.067.013.033.14.389.22.846l.125.002c.48 0 .874-.084 1.195-.223-.086-.219-.182-.46-.28-.701a.101.101 0 1 1 .188-.076l.274.687a1.915 1.915 0 0 0 .775-.772c.068-.537.16-1.264.245-2.111l-.015-.001" fill="#A0A9AA"/><path d="M13.521 15.625c-.247 0-.47.048-.666.117h1.393a2.375 2.375 0 0 0-.726-.117m-2.953 0c-.258 0-.496.045-.716.114.437 0 .902 0 1.38.002a1.97 1.97 0 0 0-.664-.116" fill="#E8E9E4"/><path d="M14.418 17.626a.1.1 0 0 0-.095.136c.002.008.121.34.201.77a6.9 6.9 0 0 0 .21.008 5.522 5.522 0 0 0-.22-.847.102.102 0 0 0-.096-.067M12.624 17.223a.1.1 0 0 0-.062.02.102.102 0 0 0-.016.144c.005.007.29.373.44.829.075.03.156.06.242.088-.142-.552-.498-1.01-.524-1.043a.102.102 0 0 0-.08-.038M10.799 17.412a.101.101 0 0 0-.066.178 3 3 0 0 1 .5.569c.066-.03.127-.06.183-.09a3.076 3.076 0 0 0-.551-.632.1.1 0 0 0-.066-.025M15.867 17.478a.102.102 0 0 0-.038.007.102.102 0 0 0-.056.132c.098.24.194.482.28.7a1.92 1.92 0 0 0 .182-.09l-.274-.686a.102.102 0 0 0-.094-.063" fill="#9A9FA0"/><path d="M16.617 17.1c-.384.372-.962.632-1.81.632-1.806 0-2.602-.713-2.78-.9a.054.054 0 0 0-.078 0c-.176.188-.96.9-2.766.9-.9 0-1.495-.255-1.878-.62-.723-.691-.698-1.991-.586-2.51.018-.082.131-.09.161-.012.04.104.094.226.171.35.181.296.482.598.965.662.062.008.126.013.194.013.486 0 1.223-.8 2.31-.8.295 0 .557.069.776.16l1.342.024c.23-.102.512-.183.833-.183 1.085 0 1.823.799 2.31.799a1.287 1.287 0 0 0 1.074-.549c.121-.163.202-.337.255-.476.03-.078.143-.071.16.01.112.516.063 1.808-.653 2.5" fill="#A0A9AA"/><path d="M12.57 14.148c.096.37.177.706.177.788 0 .202-.354.505-.76.505-.403 0-.757-.303-.757-.505 0-.134.213-.941.357-1.471" fill="#FFF"/><g transform="translate(3)"><mask id="d" fill="#fff"><use xlink:href="#c"/></mask><path d="M17.628 10.908h-.141a2.85 2.85 0 0 0-2.146-2.612.522.522 0 0 0-.117-.2.408.408 0 0 0-.27-.122c.039-.511.08-1.027.122-1.53.023-.276.045-.54.064-.787.207-.284.429-.631.663-1.038a8.645 8.645 0 0 1 1.825 5.31v.979zm-1.1 1.652a2.421 2.421 0 0 1-1.346.845l-.054.005V8.7l.046.005a2.431 2.431 0 0 1 1.879 2.35c0 .546-.186 1.08-.525 1.504zm-1.771-7.125a.186.186 0 0 0-.011.02.102.102 0 0 0-.036.07 3.44 3.44 0 0 1-.363.4l-.236.224-.242.215c-.067.058-.134.112-.201.168a8.669 8.669 0 0 1-.834.607c-.363.23-.748.425-1.15.568a4.39 4.39 0 0 1-1.248.253c-.851.051-1.701-.192-2.452-.601A7.742 7.742 0 0 1 6.91 6.64c-.342-.263-.646-.57-1.013-.817a.038.038 0 0 0-.04 0 .035.035 0 0 0-.01.05c.155.228.345.423.548.604l-.152-.01c-.516-.029-1.001-.058-1.352-.079l-.306-.018a.366.366 0 0 0-.387.313c-.101.656-.335 2.279-.335 3.16 0 .748.074 3.138.183 4.879a2.317 2.317 0 0 1-.072-.17.182.182 0 0 0-.137-.115c-.018-.215-.036-.429-.05-.639a41.69 41.69 0 0 1-.12-3.037c.024-.565-.01-1.327-.105-2.398a.465.465 0 0 0-.004-.037c-.035-.39-.074-.776-.111-1.15-.084-.837-.157-1.561-.157-1.997 0-.558.478-1.002.984-1.47.324-.3.659-.611.896-.974.212-.325.449-.615.71-.87l.15-.14C6.985.872 8.249.44 9.803.44c1.894 0 3.109 1.43 3.835 2.285.142.167.265.311.368.414.236.238.62.325 1.144.26a.452.452 0 0 1 .439.197.44.44 0 0 1 .009.491l-.084.154c-.27.482-.524.885-.757 1.196zm.169 3.003v5.218l-.006.015h-.422c.074-1.043.112-2.041.112-2.971-.02-.487.006-1.236.077-2.286h.23c.003.005.006.014.009.024zm-.518 2.265c0 .963-.041 2.006-.122 3.097-.014.201-.031.41-.05.64-.011-.002-.022-.005-.033-.005a.184.184 0 0 0-.187.118l-.016.038c.104-1.714.179-3.971.179-4.745 0-.883-.234-2.506-.334-3.16-.002-.016-.006-.029-.01-.043l.159-.135c.08-.075.164-.147.244-.223l.236-.232c.075-.07.145-.147.212-.228l-.052.65c-.05.612-.102 1.245-.145 1.864-.075 1.09-.101 1.864-.081 2.364zm-2.426 9.707c-1.155.875-2.276 1.416-2.928 1.416-.638 0-1.738-.556-2.941-1.49-1.13-.877-1.828-1.683-1.828-1.93 0-.084-.032-.328-.085-.73l-.08-.613c.037.043.075.084.115.122.45.43 1.106.648 1.948.648 1.738 0 2.555-.646 2.805-.896.255.25 1.082.895 2.819.895.795 0 1.427-.222 1.88-.66.117-.113.217-.24.3-.375-.041.343-.08.643-.111.886a9.947 9.947 0 0 0-.083.724c0 .366-.762 1.21-1.811 2.003zM9.63 14.684l.02.13c.005.027.01.056.012.082l-.014.091c-.004.01-.008.02-.014.03a.514.514 0 0 1-.07.088.835.835 0 0 1-.417.218.77.77 0 0 1-.464-.048.83.83 0 0 1-.203-.122.467.467 0 0 1-.14-.167c-.004-.007-.004-.014-.006-.02l-.004-.015c0-.008 0-.016-.002-.024 0-.005 0-.012.002-.02.005-.04.012-.082.02-.126.017-.086.036-.173.055-.258l.236-1.043a.058.058 0 0 0-.038-.068.058.058 0 0 0-.072.037c-.11.34-.214.684-.305 1.03-.022.088-.044.175-.064.264a.812.812 0 0 0-.015.07 2.066 2.066 0 0 0-.63-.099c-.675 0-1.213.293-1.645.53-.265.145-.495.27-.663.27-.06 0-.12-.005-.181-.012a1.157 1.157 0 0 1-.756-.428 106.263 106.263 0 0 1-.207-5.23c0-.867.233-2.478.333-3.13a.164.164 0 0 1 .174-.14l.307.018c.352.02.836.05 1.352.079l.248.013.17.01.134.109c.345.274.71.526 1.099.74a5.39 5.39 0 0 0 1.235.5 4.19 4.19 0 0 0 1.329.137 4.557 4.557 0 0 0 1.308-.271 5.98 5.98 0 0 0 1.189-.595c.248-.16.484-.337.712-.522.105.695.32 2.217.32 3.053 0 .838-.088 3.425-.206 5.165a1.182 1.182 0 0 1-.99.504c-.17 0-.398-.127-.664-.27-.431-.236-.97-.53-1.645-.53-.221 0-.443.037-.661.11a.611.611 0 0 0-.01-.04l-.034-.132a9.265 9.265 0 0 0-.161-.513.036.036 0 0 0-.04-.023.035.035 0 0 0-.03.04l.096.527zm-5.824-.003c.045.11.097.215.157.312.249.406.609.652 1.039.71.07.008.138.014.207.014.22 0 .47-.138.76-.296.412-.224.925-.505 1.55-.505.21 0 .42.037.626.11a.217.217 0 0 0 .012.037.668.668 0 0 0 .193.246c.077.065.163.115.254.154.18.078.39.1.585.055a.98.98 0 0 0 .506-.292.588.588 0 0 0 .089-.127.369.369 0 0 0 .024-.06c.218-.08.44-.123.662-.123.624 0 1.137.28 1.549.505.29.159.54.295.76.295.047 0 .093-.002.142-.005.414-.037.755-.235 1.015-.585l.01-.016.009-.011c.088-.123.165-.264.227-.418.057.33.048.885-.107 1.41l-.005.005-.003.02c-.104.34-.27.668-.521.91-.414.401-1 .605-1.74.605-1.743 0-2.512-.665-2.705-.869a.16.16 0 0 0-.227 0c-.19.204-.947.869-2.692.869-.787 0-1.396-.2-1.807-.593a1.64 1.64 0 0 1-.315-.419l-.008-.014c-.356-.674-.312-1.552-.246-1.925zm-.751-1.01l-.006-.013v-5.22c.003-.01.006-.019.009-.024h.305c.059.667.132 1.62.102 2.343 0 .91.037 1.89.11 2.915h-.52zm-.303-5.575a.512.512 0 0 0-.118.2 2.85 2.85 0 0 0-2.146 2.612H.348V9.93c0-1.791.544-3.51 1.572-4.97a8.629 8.629 0 0 1 3.022-2.665c-.046.066-.093.133-.138.2-.208.32-.522.61-.827.893C3.424 3.9 2.853 4.43 2.853 5.18c0 .455.073 1.183.157 2.027l.076.766H3.04a.402.402 0 0 0-.288.121zm.094 5.313l-.052-.004a2.412 2.412 0 0 1-1.872-2.35c0-1.111.789-2.098 1.878-2.348l.046-.006v4.708zm13.099-9.044l.05-.091a.891.891 0 0 0-.9-1.31c-.093.01-.18.017-.26.017-.168 0-.395-.027-.52-.151a7.88 7.88 0 0 1-.344-.39C13.248 1.588 11.9 0 9.802 0c-1.158 0-2.185.234-3.05.696A5.167 5.167 0 0 0 5.338 1.8a8.894 8.894 0 0 0-3.64 3.003A8.849 8.849 0 0 0 .079 9.93v1.857c0 .075.06.136.135.136a.136.136 0 0 0 .135-.136v-.677h.137c.013.627.23 1.237.62 1.724a2.86 2.86 0 0 0 1.538.986c.023.06.057.118.106.168a.409.409 0 0 0 .292.123h.33l.03.375a.296.296 0 0 0-.011.045c-.091.42-.152 1.416.25 2.228.048.383.09.712.126.98.04.311.079.605.08.668 0 .174.073.454.639 1.06.357.38.839.813 1.359 1.216.614.476 2.155 1.582 3.21 1.582 1.117 0 2.725-1.15 3.192-1.505.465-.353 1.985-1.564 1.985-2.354 0-.061.04-.358.08-.674.05-.383.118-.904.188-1.52.127-.434.18-.947.143-1.387.022-.24.043-.48.06-.714h.234a.408.408 0 0 0 .29-.123.495.495 0 0 0 .108-.168 2.86 2.86 0 0 0 1.536-.986c.39-.487.609-1.098.62-1.723h.138v.676c0 .075.06.136.135.136a.136.136 0 0 0 .135-.136V9.93c0-2.026-.691-3.99-1.952-5.564z" fill="#3C3C3C" mask="url(#d)"/></g><path d="M11.233 12.818c-.382.629-.946.897-1.884.897-1.314 0-1.603-.81-1.698-1.084-.075-.305-.135-1.022.158-1.314.454-.455 2.543-.392 3.291-.154.1.032.176.118.228.256.166.444.02 1.21-.095 1.399m1.481-1.4c.052-.137.128-.223.228-.255.35-.111.99-.184 1.621-.184.721 0 1.428.095 1.67.338.293.292.233 1.009.158 1.314-.095.274-.384 1.084-1.697 1.084-.939 0-1.503-.268-1.885-.897-.114-.188-.26-.955-.095-1.4m1.98 2.5c.985 0 1.603-.401 1.89-1.224l.003-.01c.072-.288.175-1.125-.21-1.511-.557-.556-2.793-.427-3.497-.203-.16.052-.28.179-.355.378a1.587 1.587 0 0 0-.086.522l-.302-.134a.353.353 0 0 0-.276-.002l-.258.11a1.594 1.594 0 0 0-.085-.496c-.075-.2-.194-.326-.356-.378-.704-.224-2.94-.353-3.496.203-.386.386-.283 1.223-.21 1.512l.003.009c.286.823.904 1.224 1.89 1.224 1.02 0 1.634-.298 2.057-.995.088-.144.175-.494.194-.858l.341-.144a.137.137 0 0 1 .114 0l.368.164a.09.09 0 0 0 .02.006c.022.355.108.69.193.832.424.697 1.04.995 2.058.995" fill="#3C3C3C"/></g></g></svg>