<svg width="22" height="22" viewBox="0 0 22 22" xmlns="http://www.w3.org/2000/svg"><path d="M17.67.032H3.367A3.36 3.36 0 0 0 0 3.398v14.303a3.363 3.363 0 0 0 3.367 3.367H17.67a3.363 3.363 0 0 0 3.366-3.367V3.398A3.36 3.36 0 0 0 17.67.032zM3.567 3.502l.529-1.363.528 1.362 1.465.078-1.138.932.37 1.411-1.226-.795-1.228.795.37-1.411-1.13-.932 1.46-.078zM18.932 17.05c0 1.241-.59 1.914-1.824 1.914H4.101c-1.234 0-1.994-.673-1.994-1.914.02-7.596 7.101-14.94 15.001-14.911 1.234 0 1.824.67 1.824 1.906V17.05z" fill-rule="nonzero" fill="#657176"/></svg>