<svg width="22" height="22" viewBox="0 0 22 22" xmlns="http://www.w3.org/2000/svg" xmlns:xlink="http://www.w3.org/1999/xlink"><title>Logo-imasters</title><defs><path d="M.561 4.871s-.053.036-.124.072c-.054.035-.124.089-.16.106-.212.141-.212.354-.212.354V16.42l.194.337 10.043 5.136s.248.088.425.088c.195 0 .408-.141.408-.141l9.99-5.083.247-.444V5.474s0-.124-.071-.23c-.088-.124-.655-.39-.655-.39L10.958.178l-.549-.017-9.848 4.71z" id="a"/><path d="M3.213.299l-2.746 1.4c-.124.053-.212.212-.212.337v2.993H.238c0 .124.088.177.212.124l2.745-1.399c.123-.053.212-.213.212-.337V.424c0-.092-.048-.145-.116-.145a.188.188 0 0 0-.078.02z" id="c"/><path d="M3.213.299l-2.746 1.4c-.124.053-.212.212-.212.337v2.993H.238c0 .124.088.177.212.124l2.745-1.399c.123-.053.212-.213.212-.337V.424c0-.092-.048-.145-.116-.145a.188.188 0 0 0-.078.02z" id="e"/><path d="M3.582.16L.837 1.558c-.125.053-.213.214-.213.337v2.993c0 .124.088.178.213.124l2.745-1.399c.124-.053.212-.212.212-.336V.284c0-.092-.048-.145-.123-.145a.225.225 0 0 0-.089.021z" id="g"/><path d="M3.582.16L.837 1.558c-.125.053-.213.214-.213.337v2.993c0 .124.088.178.213.124l2.745-1.399c.124-.053.212-.212.212-.336V.284c0-.092-.049-.145-.123-.145a.225.225 0 0 0-.089.021z" id="i"/><path d="M3.933.984L1.188 2.383c-.124.053-.212.213-.212.337v2.993c0 .124.088.177.212.124l2.745-1.4c.124-.052.212-.212.212-.336V1.108c0-.092-.048-.144-.123-.144a.222.222 0 0 0-.089.02z" id="k"/><path d="M3.933.984L1.188 2.383c-.124.053-.212.213-.212.337v2.993c0 .124.088.177.212.124l2.745-1.4c.124-.052.212-.212.212-.336V1.108c0-.092-.047-.145-.123-.145a.243.243 0 0 0-.089.021z" id="m"/><path d="M3.195.332L.45 1.732c-.124.053-.212.212-.212.336v2.976H.22c0 .124.088.177.212.124l2.745-1.4a.415.415 0 0 0 .23-.336V.456c0-.091-.058-.144-.131-.144a.182.182 0 0 0-.081.02z" id="o"/><path d="M3.195.332L.45 1.732c-.124.053-.212.212-.212.336v2.976H.22c0 .124.088.177.212.124l2.745-1.4a.415.415 0 0 0 .23-.336V.456c0-.091-.057-.144-.131-.144a.197.197 0 0 0-.081.02z" id="q"/><path d="M3.582.157L.837 1.556c-.125.053-.213.212-.213.337v2.993c0 .124.088.177.213.124l2.745-1.399a.398.398 0 0 0 .212-.337V.281c0-.092-.058-.145-.131-.145a.178.178 0 0 0-.081.021z" id="s"/><path d="M3.582.157L.837 1.556c-.125.053-.213.212-.213.337v2.993c0 .124.088.177.213.124l2.745-1.399a.398.398 0 0 0 .212-.337V.281c0-.092-.059-.145-.131-.145a.178.178 0 0 0-.081.021z" id="u"/><path d="M3.933.981L1.188 2.38c-.124.053-.212.213-.212.337V5.71c0 .124.088.178.212.124l2.745-1.399c.124-.053.212-.212.212-.337V1.105c0-.092-.058-.145-.131-.145a.184.184 0 0 0-.081.021z" id="w"/><path d="M3.933.981L1.188 2.38c-.124.053-.212.213-.212.337V5.71c0 .124.088.178.212.124l2.745-1.399c.124-.053.212-.212.212-.337V1.105c0-.092-.057-.145-.131-.145a.184.184 0 0 0-.081.021z" id="y"/><path d="M3.074.314L.417 1.626c-.105.071-.105.159 0 .212l2.711 1.346a.587.587 0 0 0 .425 0L6.21 1.838c.124-.071.124-.159 0-.212L3.482.314a.485.485 0 0 0-.204-.04.491.491 0 0 0-.204.04z" id="A"/><path d="M3.074.314L.417 1.626c-.105.071-.105.159 0 .212l2.711 1.346a.587.587 0 0 0 .425 0L6.21 1.838c.124-.071.124-.159 0-.212L3.482.314a.487.487 0 0 0-.203-.039.49.49 0 0 0-.205.039z" id="C"/><path d="M3.6.526L.996 1.819c-.124.053-.106.142 0 .195l2.71 1.328c.106.053.3.053.408 0l2.603-1.31c.106-.054.106-.143-.018-.196L4.006.526a.53.53 0 0 0-.209-.04.447.447 0 0 0-.197.04z" id="E"/><path d="M3.6.526L.996 1.819c-.124.053-.106.142 0 .195l2.71 1.328c.106.053.3.053.408 0l2.603-1.31c.106-.054.106-.143-.018-.196L4.006.526a.552.552 0 0 0-.406 0z" id="G"/><path d="M3.48.086L.77 1.432c-.107.053-.107.159 0 .212l2.727 1.365a.588.588 0 0 0 .425 0l2.709-1.365c.125-.053.125-.159 0-.212L3.886.086a.468.468 0 0 0-.203-.04.468.468 0 0 0-.203.04z" id="I"/><path d="M3.48.086L.77 1.432c-.107.053-.107.159 0 .212l2.727 1.365a.588.588 0 0 0 .425 0l2.709-1.365c.125-.053.125-.159 0-.212L3.886.086a.468.468 0 0 0-.203-.04.465.465 0 0 0-.203.04z" id="K"/><path d="M3.515.526L.84 1.819c-.106.053-.106.142 0 .195l2.675 1.328a.54.54 0 0 0 .407 0l2.657-1.31c.124-.054.106-.143 0-.196L3.922.526a.468.468 0 0 0-.203-.04.47.47 0 0 0-.204.04z" id="M"/><path d="M3.515.526L.84 1.819c-.106.053-.106.142 0 .195l2.675 1.328a.54.54 0 0 0 .407 0l2.657-1.31c.124-.054.106-.143 0-.196L3.922.526a.485.485 0 0 0-.204-.04.483.483 0 0 0-.203.04z" id="O"/><path d="M3.039.808L.417 2.083c-.105.053-.105.141 0 .195l2.657 1.311a.543.543 0 0 0 .408 0l2.604-1.293c.124-.054.107-.142 0-.196L3.447.808a.543.543 0 0 0-.408 0z" id="Q"/><path d="M3.039.808L.417 2.083c-.105.053-.105.141 0 .195l2.657 1.311a.543.543 0 0 0 .408 0l2.604-1.293c.124-.054.107-.142 0-.196L3.447.808a.562.562 0 0 0-.211-.04.461.461 0 0 0-.197.04z" id="S"/><path d="M2.919.297L.192 1.626c-.107.071-.107.159 0 .212l2.674 1.346a.59.59 0 0 0 .426 0l2.709-1.346c.106-.071.106-.159 0-.212L3.327.297a.488.488 0 0 0-.204-.04.488.488 0 0 0-.204.04z" id="U"/><path d="M2.919.297L.192 1.626c-.107.071-.107.159 0 .212l2.674 1.346a.59.59 0 0 0 .426 0l2.709-1.346c.106-.071.106-.159 0-.212L3.327.297a.488.488 0 0 0-.204-.039.488.488 0 0 0-.204.039z" id="W"/><path d="M2.937.808L.262 2.083c-.106.053-.106.141 0 .195l2.64 1.311a.54.54 0 0 0 .407 0l2.675-1.293c.106-.054.106-.142 0-.196L3.344.808a.468.468 0 0 0-.203-.04.473.473 0 0 0-.204.04z" id="Y"/><path d="M2.937.808L.262 2.083c-.106.053-.106.141 0 .195l2.64 1.311a.54.54 0 0 0 .407 0l2.675-1.293c.106-.054.106-.142 0-.196L3.344.808a.487.487 0 0 0-.203-.04.485.485 0 0 0-.204.04z" id="aa"/><path d="M3.48.125L.858 1.383c-.106.052-.106.141 0 .194L3.48 2.853c.106.053.3.053.406 0l2.622-1.276c.106-.053.106-.142 0-.194L3.886.125a.538.538 0 0 0-.406 0z" id="ac"/><path d="M3.48.125L.858 1.383c-.106.052-.106.141 0 .194L3.48 2.853c.106.053.3.053.406 0l2.622-1.276c.106-.053.106-.142 0-.194L3.886.125a.557.557 0 0 0-.21-.04.457.457 0 0 0-.196.04z" id="ae"/><path d="M3.377.544L.649 1.836c-.123.053-.123.142-.018.196l2.64 1.327a.54.54 0 0 0 .407 0l2.727-1.31c.107-.053.107-.142 0-.195L3.785.544a.476.476 0 0 0-.204-.041.47.47 0 0 0-.204.041z" id="ag"/><path d="M3.377.544L.649 1.836c-.123.053-.123.142-.018.196l2.64 1.327a.54.54 0 0 0 .407 0l2.727-1.31c.107-.053.107-.142 0-.195L3.785.544A.477.477 0 0 0 3.58.503a.471.471 0 0 0-.203.041z" id="ai"/><path d="M3.564.127L.819 1.526c-.125.053-.213.213-.213.337v2.993c0 .124.088.177.213.124l2.745-1.399c.124-.053.213-.213.213-.336V.251c0-.092-.049-.145-.124-.145a.225.225 0 0 0-.089.021z" id="ak"/><path d="M3.564.127L.819 1.526c-.125.053-.213.213-.213.337v2.993c0 .124.088.177.213.124l2.745-1.399c.124-.053.213-.213.213-.336V.251c0-.092-.049-.145-.124-.145a.225.225 0 0 0-.089.021z" id="am"/><path d="M.171.367v2.952c0 .123.087.28.21.332l2.708 1.381c.122.052.21 0 .21-.123V1.956c0-.121-.088-.279-.21-.331L.381.245A.224.224 0 0 0 .293.224C.219.224.171.276.171.367z" id="ao"/><path d="M.171.367v2.952c0 .123.087.28.21.332l2.708 1.381c.122.052.21 0 .21-.123V1.956c0-.121-.088-.279-.21-.331L.381.245a.221.221 0 0 0-.088-.02C.219.225.171.277.171.367z" id="aq"/><path d="M.735.202v2.952c0 .122.087.28.21.332l2.708 1.38c.122.053.21 0 .21-.123V1.791a.394.394 0 0 0-.21-.332L.945.079a.221.221 0 0 0-.088-.02C.783.059.735.111.735.202z" id="as"/><path d="M.735.202v2.952c0 .122.087.28.21.332l2.708 1.38c.122.053.21 0 .21-.123V1.791a.394.394 0 0 0-.21-.332L.945.079a.221.221 0 0 0-.088-.02C.783.059.735.111.735.202z" id="au"/><path d="M.344 1.125v2.994c0 .124.089.283.213.336l2.745 1.4c.125.053.213 0 .213-.124V2.737c0-.124-.088-.283-.213-.336l-2.745-1.4a.222.222 0 0 0-.089-.02c-.075 0-.124.053-.124.144z" id="aw"/><path d="M.344 1.125v2.994c0 .124.089.283.213.336l2.745 1.4c.125.053.213 0 .213-.124V2.737c0-.124-.088-.283-.213-.336l-2.745-1.4A.248.248 0 0 0 .468.98c-.075 0-.124.054-.124.145z" id="ay"/><path d="M.154.419v2.953a.39.39 0 0 0 .21.331l2.707 1.38c.122.052.21 0 .21-.122V2.009c0-.122-.088-.28-.21-.332L.364.296a.193.193 0 0 0-.081-.02C.211.276.154.328.154.419z" id="aA"/><path d="M.154.419v2.953a.39.39 0 0 0 .21.331l2.707 1.38c.122.052.21 0 .21-.122V2.009c0-.122-.088-.28-.21-.332L.364.296a.192.192 0 0 0-.08-.02c-.073 0-.13.053-.13.143z" id="aC"/><path d="M.718.254v2.952c0 .122.087.28.209.332l2.708 1.38c.122.053.21 0 .21-.123V1.843c0-.122-.088-.28-.21-.332L.927.131a.178.178 0 0 0-.08-.02C.775.111.718.163.718.254z" id="aE"/><path d="M.718.254v2.952c0 .122.087.28.209.332l2.708 1.38c.122.053.21 0 .21-.123V1.843c0-.122-.088-.28-.21-.332L.927.131a.189.189 0 0 0-.08-.02C.775.111.718.164.718.254z" id="aG"/><path d="M.316 1.07v2.953c0 .122.087.279.21.332l2.708 1.38c.122.052.21 0 .21-.123V2.659c0-.121-.088-.279-.21-.331L.526.948a.177.177 0 0 0-.08-.021c-.072 0-.13.052-.13.143z" id="aI"/><path d="M.316 1.07v2.953c0 .122.087.279.21.332l2.708 1.38c.122.052.21 0 .21-.123V2.659c0-.121-.088-.279-.21-.331L.526.948a.175.175 0 0 0-.08-.02c-.072 0-.13.052-.13.142z" id="aK"/><path d="M.695.268v2.977c0 .123.09.283.213.335l2.746 1.418c.124.053.212 0 .212-.124V1.88a.398.398 0 0 0-.212-.336L.908.145A.229.229 0 0 0 .819.124C.744.124.695.177.695.268z" id="aM"/><path d="M.695.268v2.977c0 .123.09.283.213.335l2.746 1.418c.124.053.212 0 .212-.124V1.88a.398.398 0 0 0-.212-.336L.908.145A.229.229 0 0 0 .819.124C.744.124.695.177.695.268z" id="aO"/><path d="M.344 1.129v2.993c0 .123.089.283.213.336l2.745 1.417c.125.053.213 0 .213-.123V2.74c0-.124-.088-.283-.213-.336l-2.745-1.4a.222.222 0 0 0-.089-.02c-.075 0-.124.053-.124.145z" id="aQ"/><path d="M.344 1.129v2.993c0 .123.089.283.213.336l2.745 1.417c.125.053.213 0 .213-.123V2.74c0-.124-.088-.283-.213-.336l-2.745-1.4a.245.245 0 0 0-.089-.02c-.075 0-.124.053-.124.145z" id="aS"/><path d="M.171.315v2.952c0 .124.087.28.21.332L3.089 4.98c.122.052.21 0 .21-.123V1.906a.394.394 0 0 0-.21-.333L.381.193a.221.221 0 0 0-.088-.02C.219.173.171.225.171.315z" id="aU"/><path d="M.171.315v2.952c0 .124.087.28.21.332L3.089 4.98c.122.052.21 0 .21-.123V1.906a.394.394 0 0 0-.21-.333L.381.193a.221.221 0 0 0-.088-.02C.219.173.171.225.171.315z" id="aW"/><path d="M3.933.987L1.188 2.386c-.124.053-.212.212-.212.336v2.994c0 .124.088.177.212.124l2.745-1.399a.398.398 0 0 0 .212-.337V1.111c0-.091-.048-.145-.123-.145a.233.233 0 0 0-.089.021z" id="aY"/><path d="M3.933.987L1.188 2.386c-.124.053-.212.212-.212.336v2.994c0 .124.088.177.212.124l2.745-1.399a.398.398 0 0 0 .212-.337V1.111c0-.091-.047-.144-.123-.144a.226.226 0 0 0-.089.02z" id="ba"/><path d="M3.213.268L.467 1.666a.398.398 0 0 0-.212.337v2.993H.238c0 .124.088.177.212.124l2.745-1.399c.123-.053.212-.213.212-.336V.391c0-.091-.048-.144-.116-.144a.163.163 0 0 0-.078.021z" id="bc"/><path d="M3.213.268L.467 1.666a.398.398 0 0 0-.212.337v2.993H.238c0 .124.088.177.212.124l2.745-1.399c.123-.053.212-.213.212-.336V.391c0-.091-.048-.144-.116-.144a.163.163 0 0 0-.078.021z" id="be"/></defs><g fill="none" fill-rule="evenodd"><g><mask id="b" fill="#fff"><use xlink:href="#a"/></mask><path fill="#FFF" mask="url(#b)" d="M-4.935 26.981h31.307V-4.84H-4.935z"/></g><path d="M18.237 14.029c0 .124.088.177.212.124l2.746-1.4a.398.398 0 0 0 .212-.336V9.424c0-.124-.088-.177-.194-.124l-2.746 1.399c-.124.053-.212.213-.212.337v2.993h-.018z" fill="#9CA1A1"/><g transform="translate(18 9)"><mask id="d" fill="#fff"><use xlink:href="#c"/></mask><path fill="#9CA1A1" mask="url(#d)" d="M-1178 141H222V-49h-1400z"/></g><g transform="translate(18 9)"><mask id="f" fill="#fff"><use xlink:href="#e"/></mask><path fill="#9CA1A1" mask="url(#f)" d="M-4.763 10.173h13.17V-4.721h-13.17z"/></g><path d="M14.624 15.889c0 .124.088.177.212.124l2.746-1.4a.398.398 0 0 0 .212-.336v-2.993c0-.124-.088-.177-.212-.124l-2.746 1.399c-.124.053-.212.213-.212.336v2.994z" fill="#A6B0B1"/><g transform="translate(14 11)"><mask id="h" fill="#fff"><use xlink:href="#g"/></mask><path fill="#A6B0B1" mask="url(#h)" d="M-1174 139H226V-51h-1400z"/></g><g transform="translate(14 11)"><mask id="j" fill="#fff"><use xlink:href="#i"/></mask><path fill="#A6B0B1" mask="url(#j)" d="M-4.376 10.033h13.17V-4.861h-13.17z"/></g><path d="M10.976 17.713c0 .124.088.177.212.124l2.746-1.4c.124-.052.212-.212.212-.336v-2.993c0-.124-.088-.177-.212-.124l-2.746 1.399c-.124.053-.212.213-.212.337v2.993z" fill="#9CA1A1"/><g transform="translate(10 12)"><mask id="l" fill="#fff"><use xlink:href="#k"/></mask><path fill="#9CA1A1" mask="url(#l)" d="M-1170 138H230V-52h-1400z"/></g><g transform="translate(10 12)"><mask id="n" fill="#fff"><use xlink:href="#m"/></mask><path fill="#9CA1A1" mask="url(#n)" d="M-4.024 10.857h13.17V-4.037h-13.17z"/></g><path d="M18.22 10.043c0 .125.088.178.212.125l2.746-1.4a.416.416 0 0 0 .23-.336V5.457c0-.125-.106-.178-.213-.125l-2.745 1.4c-.124.053-.212.212-.212.335v2.976h-.018z" fill="#9CA1A1"/><g transform="translate(18 5)"><mask id="p" fill="#fff"><use xlink:href="#o"/></mask><path fill="#9CA1A1" mask="url(#p)" d="M-1178 145H222V-45h-1400z"/></g><g transform="translate(18 5)"><mask id="r" fill="#fff"><use xlink:href="#q"/></mask><path fill="#9CA1A1" mask="url(#r)" d="M-4.78 10.188H8.408V-4.688H-4.78z"/></g><path d="M14.624 11.886c0 .124.088.177.212.124l2.746-1.4a.398.398 0 0 0 .212-.336V7.28c0-.124-.106-.177-.212-.124l-2.746 1.399c-.124.053-.212.213-.212.337v2.993z" fill="#A6B0B1"/><g transform="translate(14 7)"><mask id="t" fill="#fff"><use xlink:href="#s"/></mask><path fill="#A6B0B1" mask="url(#t)" d="M-1174 143H226V-47h-1400z"/></g><g transform="translate(14 7)"><mask id="v" fill="#fff"><use xlink:href="#u"/></mask><path fill="#A6B0B1" mask="url(#v)" d="M-4.376 10.03h13.17V-4.864h-13.17z"/></g><path d="M10.976 13.71c0 .124.088.177.212.124l2.746-1.399c.124-.053.212-.213.212-.337V9.105c0-.124-.106-.177-.212-.124l-2.746 1.399a.398.398 0 0 0-.212.337v2.993z" fill="#9CA1A1"/><g transform="translate(10 8)"><mask id="x" fill="#fff"><use xlink:href="#w"/></mask><path fill="#9CA1A1" mask="url(#x)" d="M-1170 142H230V-48h-1400z"/></g><g transform="translate(10 8)"><mask id="z" fill="#fff"><use xlink:href="#y"/></mask><path fill="#9CA1A1" mask="url(#z)" d="M-4.024 10.854h13.17V-4.04h-13.17z"/></g><path d="M17.21 6.625c.124.053.124.143 0 .213l-2.657 1.346a.598.598 0 0 1-.425 0l-2.71-1.346c-.106-.053-.106-.141 0-.213l2.657-1.31a.54.54 0 0 1 .407 0l2.728 1.31z" fill="#9CA1A1"/><g transform="translate(11 5)"><mask id="B" fill="#fff"><use xlink:href="#A"/></mask><path fill="#9CA1A1" mask="url(#B)" d="M-1171 145H229V-45h-1400z"/></g><g transform="translate(11 5)"><mask id="D" fill="#fff"><use xlink:href="#C"/></mask><path fill="#9CA1A1" mask="url(#D)" d="M-4.662 8.224h15.964V-4.725H-4.662z"/></g><path d="M20.7 4.836c.123.053.123.142.017.195l-2.604 1.31a.532.532 0 0 1-.407 0l-2.71-1.328c-.107-.053-.124-.14 0-.195L17.6 3.525a.543.543 0 0 1 .408 0L20.7 4.836z" fill="#A6B0B1"/><g transform="translate(14 3)"><mask id="F" fill="#fff"><use xlink:href="#E"/></mask><path fill="#A6B0B1" mask="url(#F)" d="M-1174 147H226V-43h-1400z"/></g><g transform="translate(14 3)"><mask id="H" fill="#fff"><use xlink:href="#G"/></mask><path fill="#A6B0B1" mask="url(#H)" d="M-4.09 8.382h15.885V-4.514H-4.09z"/></g><path d="M13.632 8.432c.124.053.124.16 0 .212l-2.71 1.364a.59.59 0 0 1-.425 0L7.77 8.644c-.107-.053-.107-.159 0-.212l2.71-1.346a.54.54 0 0 1 .407 0l2.745 1.346z" fill="#A6B0B1"/><g transform="translate(7 7)"><mask id="J" fill="#fff"><use xlink:href="#I"/></mask><path fill="#A6B0B1" mask="url(#J)" d="M-1167 143H233V-47h-1400z"/></g><g transform="translate(7 7)"><mask id="L" fill="#fff"><use xlink:href="#K"/></mask><path fill="#A6B0B1" mask="url(#L)" d="M-4.31 8.048h16.035V-4.954H-4.31z"/></g><path d="M13.58 4.836c.105.053.123.142 0 .195l-2.658 1.31a.532.532 0 0 1-.407 0L7.84 5.013c-.106-.053-.106-.14 0-.195l2.675-1.293a.54.54 0 0 1 .407 0l2.657 1.311z" fill="#A6B0B1"/><g transform="translate(7 3)"><mask id="N" fill="#fff"><use xlink:href="#M"/></mask><path fill="#A6B0B1" mask="url(#N)" d="M-1167 147H233V-43h-1400z"/></g><g transform="translate(7 3)"><mask id="P" fill="#fff"><use xlink:href="#O"/></mask><path fill="#A6B0B1" mask="url(#P)" d="M-4.239 8.382h15.905V-4.514H-4.239z"/></g><path d="M17.086 3.1c.106.054.124.143 0 .196l-2.604 1.293a.54.54 0 0 1-.407 0l-2.657-1.311c-.106-.053-.106-.141 0-.195l2.622-1.275a.54.54 0 0 1 .407 0L17.086 3.1z" fill="#A6B0B1"/><g transform="translate(11 1)"><mask id="R" fill="#fff"><use xlink:href="#Q"/></mask><path fill="#A6B0B1" mask="url(#R)" d="M-1171 149H229V-41h-1400z"/></g><g transform="translate(11 1)"><mask id="T" fill="#fff"><use xlink:href="#S"/></mask><path fill="#A6B0B1" mask="url(#T)" d="M-4.662 8.628h15.834V-4.233H-4.662z"/></g><path d="M10.001 6.625c.106.053.106.143 0 .213L7.292 8.184a.601.601 0 0 1-.426 0L4.192 6.838c-.107-.053-.107-.141 0-.213l2.727-1.329a.543.543 0 0 1 .408 0l2.674 1.33z" fill="#A6B0B1"/><g transform="translate(4 5)"><mask id="V" fill="#fff"><use xlink:href="#U"/></mask><path fill="#A6B0B1" mask="url(#V)" d="M-1164 145H236V-45h-1400z"/></g><g transform="translate(4 5)"><mask id="X" fill="#fff"><use xlink:href="#W"/></mask><path fill="#A6B0B1" mask="url(#X)" d="M-4.888 8.224h15.969V-4.743H-4.888z"/></g><path d="M9.983 3.1c.106.054.106.143 0 .196L7.31 4.589a.543.543 0 0 1-.408 0L4.262 3.278c-.106-.053-.106-.141 0-.195l2.675-1.275a.54.54 0 0 1 .407 0L9.984 3.1z" fill="#A6B0B1"/><g transform="translate(4 1)"><mask id="Z" fill="#fff"><use xlink:href="#Y"/></mask><path fill="#A6B0B1" mask="url(#Z)" d="M-1164 149H236V-41h-1400z"/></g><g transform="translate(4 1)"><mask id="ab" fill="#fff"><use xlink:href="#aa"/></mask><path fill="#A6B0B1" mask="url(#ab)" d="M-4.817 8.628h15.881V-4.233H-4.817z"/></g><path d="M13.508 1.383c.106.053.106.142 0 .195l-2.622 1.275a.54.54 0 0 1-.407 0L7.86 1.578c-.107-.053-.107-.142 0-.195l2.62-1.258a.54.54 0 0 1 .407 0l2.622 1.258z" fill="#A6B0B1"/><g transform="translate(7)"><mask id="ad" fill="#fff"><use xlink:href="#ac"/></mask><path fill="#A6B0B1" mask="url(#ad)" d="M-1167 150H233V-40h-1400z"/></g><g transform="translate(7)"><mask id="af" fill="#fff"><use xlink:href="#ae"/></mask><path fill="#A6B0B1" mask="url(#af)" d="M-4.222 7.893h15.81V-4.915h-15.81z"/></g><path d="M6.406 4.854c.106.053.106.142 0 .195l-2.728 1.31a.531.531 0 0 1-.407 0L.63 5.031C.527 4.978.527 4.89.65 4.836l2.727-1.293a.54.54 0 0 1 .407 0l2.622 1.311z" fill="#A6B0B1"/><g transform="translate(0 3)"><mask id="ah" fill="#fff"><use xlink:href="#ag"/></mask><path fill="#A6B0B1" mask="url(#ah)" d="M-1160 147H240V-43h-1400z"/></g><g transform="translate(0 3)"><mask id="aj" fill="#fff"><use xlink:href="#ai"/></mask><path fill="#A6B0B1" mask="url(#aj)" d="M-4.446 8.399h15.932V-4.497H-4.446z"/></g><path d="M14.606 19.856c0 .124.088.177.212.124l2.746-1.399c.124-.053.212-.213.212-.337v-2.993c0-.124-.088-.177-.212-.124l-2.746 1.399a.398.398 0 0 0-.212.337v2.993z" fill="#A6B0B1"/><g transform="translate(14 15)"><mask id="al" fill="#fff"><use xlink:href="#ak"/></mask><path fill="#A6B0B1" mask="url(#al)" d="M-1174 135H226V-55h-1400z"/></g><g transform="translate(14 15)"><mask id="an" fill="#fff"><use xlink:href="#am"/></mask><path fill="#A6B0B1" mask="url(#an)" d="M-4.394 10h13.17V-4.894h-13.17z"/></g><path d="M3.298 13.91c0 .122-.087.174-.209.122l-2.708-1.38c-.123-.053-.21-.21-.21-.333V9.367c0-.123.087-.175.21-.123l2.708 1.381c.122.052.21.21.21.331v2.953z" fill="#5F7177"/><g transform="translate(0 9)"><mask id="ap" fill="#fff"><use xlink:href="#ao"/></mask><path fill="#5F7177" mask="url(#ap)" d="M-1144.079 139.022H236.794V-48.382h-1380.873z"/></g><g transform="translate(0 9)"><mask id="ar" fill="#fff"><use xlink:href="#aq"/></mask><path fill="#5F7177" mask="url(#ar)" d="M-4.76 9.983H8.23v-14.69H-4.76z"/></g><path d="M6.862 15.744c0 .122-.087.175-.209.122l-2.708-1.38c-.123-.052-.21-.21-.21-.332v-2.952c0-.123.087-.175.21-.123l2.708 1.38c.122.053.21.21.21.332v2.953z" fill="#5F7177"/><g transform="translate(3 11)"><mask id="at" fill="#fff"><use xlink:href="#as"/></mask><path fill="#5F7177" mask="url(#at)" d="M-1147.079 137.022H233.794V-50.382h-1380.873z"/></g><g transform="translate(3 11)"><mask id="av" fill="#fff"><use xlink:href="#au"/></mask><path fill="#5F7177" mask="url(#av)" d="M-4.196 9.818h12.99v-14.69h-12.99z"/></g><path d="M10.515 17.73c0 .125-.088.177-.212.125l-2.746-1.4c-.124-.052-.212-.212-.212-.336v-2.993c0-.124.088-.178.212-.124l2.746 1.398a.398.398 0 0 1 .212.338v2.992z" fill="#5F7177"/><g transform="translate(7 12)"><mask id="ax" fill="#fff"><use xlink:href="#aw"/></mask><path fill="#5F7177" mask="url(#ax)" d="M-1167 138H233V-52h-1400z"/></g><g transform="translate(7 12)"><mask id="az" fill="#fff"><use xlink:href="#ay"/></mask><path fill="#5F7177" mask="url(#az)" d="M-4.656 10.875h13.17V-4.019h-13.17z"/></g><path d="M3.28 9.96c0 .124-.086.176-.208.124L.364 8.703c-.123-.052-.21-.21-.21-.331V5.419c0-.123.105-.175.21-.123l2.708 1.38c.122.053.209.21.209.333V9.96z" fill="#5F7177"/><g transform="translate(0 5)"><mask id="aB" fill="#fff"><use xlink:href="#aA"/></mask><path fill="#5F7177" mask="url(#aB)" d="M-1144.079 143.022H236.794V-44.382h-1380.873z"/></g><g transform="translate(0 5)"><mask id="aD" fill="#fff"><use xlink:href="#aC"/></mask><path fill="#5F7177" mask="url(#aD)" d="M-4.778 10.035h12.99v-14.69h-12.99z"/></g><path d="M6.845 11.795c0 .122-.087.175-.21.122l-2.707-1.38c-.123-.052-.21-.209-.21-.332V7.253c0-.123.105-.175.21-.123l2.708 1.381c.122.052.209.21.209.331v2.953z" fill="#5F7177"/><g transform="translate(3 7)"><mask id="aF" fill="#fff"><use xlink:href="#aE"/></mask><path fill="#5F7177" mask="url(#aF)" d="M-1147.079 141.022H233.794V-46.382h-1380.873z"/></g><g transform="translate(3 7)"><mask id="aH" fill="#fff"><use xlink:href="#aG"/></mask><path fill="#5F7177" mask="url(#aH)" d="M-4.214 9.87h12.99V-4.82h-12.99z"/></g><path d="M10.443 13.612c0 .122-.087.175-.209.122l-2.708-1.38c-.123-.052-.21-.209-.21-.332V9.07c0-.123.105-.175.21-.123l2.708 1.381c.122.052.21.21.21.331v2.953z" fill="#5F7177"/><g transform="translate(7 8)"><mask id="aJ" fill="#fff"><use xlink:href="#aI"/></mask><path fill="#5F7177" mask="url(#aJ)" d="M-1151.079 140.022H229.794V-47.382h-1380.873z"/></g><g transform="translate(7 8)"><mask id="aL" fill="#fff"><use xlink:href="#aK"/></mask><path fill="#5F7177" mask="url(#aL)" d="M-4.615 10.687H8.376v-14.69H-4.615z"/></g><path d="M6.866 19.873c0 .124-.088.177-.212.124l-2.746-1.416c-.124-.053-.212-.212-.212-.337v-2.976c0-.123.088-.177.212-.123l2.746 1.399a.398.398 0 0 1 .212.337v2.992z" fill="#5F7177"/><g transform="translate(3 15)"><mask id="aN" fill="#fff"><use xlink:href="#aM"/></mask><path fill="#5F7177" mask="url(#aN)" d="M-1163 135H237V-55h-1400z"/></g><g transform="translate(3 15)"><mask id="aP" fill="#fff"><use xlink:href="#aO"/></mask><path fill="#5F7177" mask="url(#aP)" d="M-4.304 10.018h13.17V-4.876h-13.17z"/></g><path d="M10.515 21.752c0 .123-.088.177-.212.123L7.557 20.46c-.124-.053-.212-.213-.212-.337v-2.994c0-.123.088-.177.212-.123l2.746 1.399c.124.052.212.212.212.337v3.01z" fill="#5F7177"/><g transform="translate(7 16)"><mask id="aR" fill="#fff"><use xlink:href="#aQ"/></mask><path fill="#5F7177" mask="url(#aR)" d="M-1167 134H233V-56h-1400z"/></g><g transform="translate(7 16)"><mask id="aT" fill="#fff"><use xlink:href="#aS"/></mask><path fill="#5F7177" mask="url(#aT)" d="M-4.656 10.896h13.17V-4.016h-13.17z"/></g><path d="M3.298 17.857c0 .123-.087.175-.209.123L.381 16.6c-.123-.053-.21-.21-.21-.333v-2.952c0-.123.087-.175.21-.123l2.708 1.381c.122.052.21.21.21.332v2.952z" fill="#5F7177"/><g transform="translate(0 13)"><mask id="aV" fill="#fff"><use xlink:href="#aU"/></mask><path fill="#5F7177" mask="url(#aV)" d="M-1144.079 135.022H236.794V-52.382h-1380.873z"/></g><g transform="translate(0 13)"><mask id="aX" fill="#fff"><use xlink:href="#aW"/></mask><path fill="#5F7177" mask="url(#aX)" d="M-4.76 9.932H8.23v-14.69H-4.76z"/></g><path d="M10.976 21.716c0 .124.088.177.212.124l2.746-1.4a.398.398 0 0 0 .212-.336V17.11c0-.124-.088-.177-.212-.124l-2.746 1.399c-.124.053-.212.213-.212.337v2.993z" fill="#9CA1A1"/><g transform="translate(10 16)"><mask id="aZ" fill="#fff"><use xlink:href="#aY"/></mask><path fill="#9CA1A1" mask="url(#aZ)" d="M-1170 134H230V-56h-1400z"/></g><g transform="translate(10 16)"><mask id="bb" fill="#fff"><use xlink:href="#ba"/></mask><path fill="#9CA1A1" mask="url(#bb)" d="M-4.024 10.86h13.17V-4.034h-13.17z"/></g><path d="M18.237 17.996c0 .124.088.177.212.124l2.746-1.399c.124-.053.212-.213.212-.336v-2.994c0-.124-.088-.177-.194-.124l-2.746 1.4a.398.398 0 0 0-.212.336v2.993h-.018z" fill="#9CA1A1"/><g transform="translate(18 13)"><mask id="bd" fill="#fff"><use xlink:href="#bc"/></mask><path fill="#9CA1A1" mask="url(#bd)" d="M-1178 137H222V-53h-1400z"/></g><g transform="translate(18 13)"><mask id="bf" fill="#fff"><use xlink:href="#be"/></mask><path fill="#9CA1A1" mask="url(#bf)" d="M-4.763 10.141h13.17V-4.753h-13.17z"/></g></g></svg>