<svg width="23" height="23" viewBox="0 0 23 23" xmlns="http://www.w3.org/2000/svg"><title>Logo-guj</title><g fill-rule="nonzero" fill="none"><ellipse fill="#657176" cx="11.239" cy="11.179" rx="11.239" ry="11.179"/><g fill="#939697"><path d="M9.196 5.456s-.157.127-.158.45c0 .323.157.45.157.45s.112.103.181.295c.09.251.062.54-.087.86-.549 1.18.014 1.929.388 2.16a.481.481 0 0 0 .664-.155.478.478 0 0 0-.156-.66c-.003-.002-.348-.24-.02-.943.409-.88.187-1.593-.097-2.006.285-.414.507-1.125.099-2.006-.326-.704.019-.94.022-.943a.478.478 0 0 0-.253-.887.482.482 0 0 0-.253.071c-.375.23-.94.978-.392 2.16.148.32.177.608.086.86-.07.191-.181.294-.181.294zM12.314 8.857a.478.478 0 0 0 .253.888.481.481 0 0 0 .254-.072c.374-.23.938-.978.39-2.16-.147-.319-.176-.608-.085-.86.07-.19.181-.293.181-.293s.158-.127.158-.45c0-.324-.157-.451-.157-.451s-.111-.103-.18-.294c-.09-.252-.062-.54.087-.86.549-1.18-.014-1.93-.388-2.16a.482.482 0 0 0-.664.155c-.14.225-.07.52.156.66.003.002.348.24.02.943-.409.88-.187 1.592.097 2.006-.285.413-.508 1.125-.1 2.006.326.703-.019.94-.022.942z"/></g><path d="M7.694 11.492l-2.224-.001h-.363A2.1 2.1 0 0 0 3 13.582a2.1 2.1 0 0 0 2.104 2.096l1.11.001c1.04 1.803 3.067 3.034 5.406 3.059 3.378-.03 6.112-2.578 6.158-5.734h.002l.001-1.505-6.155-.005-3.932-.003zm-2.604 2.7a.629.629 0 0 1-.63-.628.63.63 0 0 1 .631-.627h.378v.059h.002c.006.41.057.81.149 1.196h-.53z" fill="#FFF"/></g></svg>