<svg xmlns="http://www.w3.org/2000/svg" viewBox="0 0 30 30"><circle fill="#657177" cx="15" cy="15" r="15"/><path fill="none" d="M18.193 15.429c-.227.15-.427.224-.628.3-1.667.625-3.682.907-5.101 2.045-.27.249-.506.533-.699.845a2.147 2.147 0 0 0-.075.143 2.66 2.66 0 0 0-.243 1.169c.009 1.038.268 1.824.777 2.313.043.044.09.085.139.126.532.428 1.424.626 2.691.615.989-.008 1.753-.148 2.295-.419.232-.116.423-.256.574-.419.498-.548.743-1.315.734-2.301l-.036-4.182h-.001l-.006-.637-.001-.201a.87.87 0 0 1-.42.603z"/><path fill="#ABB1B2" d="M22.178 15.695l-.042-4.807-3.522 4.138.006.637h.002l.036 4.182c.009.986-.236 1.753-.734 2.301a1.928 1.928 0 0 1-.574.419c-.542.271-1.306.411-2.295.419-1.267.012-2.159-.187-2.691-.615l-2.248 2.641c.382.243.824.452 1.334.623.935.313 2.149.474 3.634.462 1.488-.013 2.697-.196 3.627-.526a8.35 8.35 0 0 0 .63-.251c1.758-.789 2.901-2.301 2.884-4.272l-.047-5.351z"/><path fill="#FFF" d="M12.225 22.243c-.509-.488-.768-1.275-.777-2.313-.003-.45.089-.845.243-1.169.023-.049.048-.097.075-.143.193-.312.429-.596.699-.845 1.419-1.138 3.433-1.42 5.101-2.045.201-.076.401-.151.628-.3a.869.869 0 0 0 .419-.605l.001.201 3.522-4.138-.018-2.036c-.013-1.431-.603-2.634-1.771-3.563a4.732 4.732 0 0 0-.869-.557c-1.133-.571-2.663-.844-4.588-.826-1.26.01-2.342.143-3.222.448-.906.255-1.659.632-2.235 1.08-.575.452-1 .973-1.272 1.593a4.653 4.653 0 0 0-.387 1.955l.006.713a.278.278 0 0 0 .28.271l3.074-.077c.152-.001.277-.102.276-.25.044-.691.291-1.31.714-1.808.499-.57 1.429-.852 2.842-.865.681-.006 1.287.064 1.741.206.264.085.501.187.71.305l.119.091.021-.007c.096.062.185.126.264.196.279.243.484.512.585.809.122.263.186.549.186.839l.007.79c.001.113-.007.226-.026.337l.035 4.072-.036-4.072c-.216 1.288-1.322 1.747-2.398 2.17-1.546.608-3.185 1.059-4.744 1.671-1.401.55-2.405 1.263-3.199 2.811-.268.67-.383 1.375-.395 2.123-.037 2.45.384 4.5 2.279 5.705l2.248-2.641a2.06 2.06 0 0 1-.138-.126z"/></svg>