<svg version="1" xmlns="http://www.w3.org/2000/svg" width="23" height="23" viewBox="0 0 23 23"><circle fill="#657176" cx="11.5" cy="11.5" r="11.5"/><title>Page 1</title><path fill="#FFF" d="M15.6 4.1c-.9-.7-2.2-1.1-4.1-1.1-1 0-1.8.1-2.4.3-.7.2-1.3.5-1.7.8-.5.3-.8.8-1 1.2-.2.5-.3 1-.3 1.5v.6c0 .1.1.2.2.2h2.3c.1 0 .2-.1.2-.2 0-.5.2-1 .6-1.4.4-.4 1.1-.6 2.1-.6.5 0 1 .1 1.3.2.3.1.6.3.8.5.2.2.4.4.4.6.1.2.1.4.1.6v.6c0 .2 0 .5-.1.7 0 .1-.1.3-.2.4-.1.1-.3.2-.4.3-.1.1-.2.1-.3.2-.1 0-.3.1-.6.2s-.7.3-1.2.4c-.5.2-.9.3-1.4.5-.5.2-.9.3-1.3.4-.8.3-1.3.7-1.8 1.4-.4.6-.6 1.4-.6 2.2v1.5c0 .4.1.8.2 1.2.1.4.4.9.8 1.2.4.4 1 .7 1.6 1 .7.2 1.6.4 2.7.4s2-.1 2.7-.4c.7-.3 1.2-.6 1.6-1 .4-.4.7-.8.8-1.2.1-.4.2-.9.2-1.2V6.8c.1-1.1-.3-2-1.2-2.7zm-1.4 11.2c0 .8-.2 1.3-.6 1.8-.4.4-1.1.6-2.2.6-1 0-1.7-.2-2.1-.6-.4-.4-.6-1-.6-1.8 0-.4.1-.7.2-1 .2-.3.3-.5.5-.6.2-.2.5-.3.7-.4.3-.1.7-.2 1.1-.4.3-.1.7-.2 1-.4.4-.1.7-.2 1-.4.2-.1.3-.1.5-.2s.3-.3.3-.5v3.9z"/></svg>