<svg xmlns="http://www.w3.org/2000/svg" width="32" height="32" viewBox="0 0 32 32">
    <g fill="none" fill-rule="evenodd" stroke="#FF7964" stroke-linecap="square" stroke-width="2" transform="translate(1 1)">
        <circle cx="15" cy="15" r="4"/>
        <path d="M30 17v-4a1 1 0 0 0-1-1h-3.4c-.2-.8-.6-1.6-1-2.4l2.393-2.393a1 1 0 0 0 0-1.414l-2.786-2.786a1 1 0 0 0-1.414 0L20.4 5.4c-.7-.4-1.5-.7-2.4-1V1a1 1 0 0 0-1-1h-4a1 1 0 0 0-1 1v3.4c-.8.2-1.6.6-2.4 1L7.207 3.007a1 1 0 0 0-1.414 0L3.007 5.793a1 1 0 0 0 0 1.414L5.4 9.6c-.4.7-.7 1.5-1 2.4H1a1 1 0 0 0-1 1v4a1 1 0 0 0 1 1h3.4c.2.8.6 1.6 1 2.4l-2.393 2.393a1 1 0 0 0 0 1.414l2.786 2.786a1 1 0 0 0 1.414 0L9.6 24.6c.7.4 1.5.7 2.4 1V29a1 1 0 0 0 1 1h4a1 1 0 0 0 1-1v-3.4c.8-.2 1.6-.6 2.4-1l2.393 2.393a1 1 0 0 0 1.414 0l2.786-2.786a1 1 0 0 0 0-1.414L24.6 20.4c.4-.7.7-1.5 1-2.4H29a1 1 0 0 0 1-1z"/>
    </g>
</svg>
